G04 #@! TF.GenerationSoftware,KiCad,Pcbnew,(5.1.9)-1*
G04 #@! TF.CreationDate,2021-01-27T19:03:13-08:00*
G04 #@! TF.ProjectId,DRR HAT,44525220-4841-4542-9e6b-696361645f70,1.0*
G04 #@! TF.SameCoordinates,Original*
G04 #@! TF.FileFunction,Copper,L2,Bot*
G04 #@! TF.FilePolarity,Positive*
%FSLAX46Y46*%
G04 Gerber Fmt 4.6, Leading zero omitted, Abs format (unit mm)*
G04 Created by KiCad (PCBNEW (5.1.9)-1) date 2021-01-27 19:03:13*
%MOMM*%
%LPD*%
G01*
G04 APERTURE LIST*
G04 #@! TA.AperFunction,ComponentPad*
%ADD10R,1.700000X1.700000*%
G04 #@! TD*
G04 #@! TA.AperFunction,ComponentPad*
%ADD11O,1.700000X1.700000*%
G04 #@! TD*
G04 #@! TA.AperFunction,ComponentPad*
%ADD12O,1.700000X1.950000*%
G04 #@! TD*
G04 #@! TA.AperFunction,Conductor*
%ADD13C,0.250000*%
G04 #@! TD*
G04 #@! TA.AperFunction,Conductor*
%ADD14C,0.254000*%
G04 #@! TD*
G04 #@! TA.AperFunction,Conductor*
%ADD15C,0.100000*%
G04 #@! TD*
G04 APERTURE END LIST*
D10*
X125902000Y-95838000D03*
D11*
X125902000Y-93298000D03*
X128442000Y-95838000D03*
X128442000Y-93298000D03*
X130982000Y-95838000D03*
X130982000Y-93298000D03*
X133522000Y-95838000D03*
X133522000Y-93298000D03*
X136062000Y-95838000D03*
X136062000Y-93298000D03*
X138602000Y-95838000D03*
X138602000Y-93298000D03*
X141142000Y-95838000D03*
X141142000Y-93298000D03*
X143682000Y-95838000D03*
X143682000Y-93298000D03*
X146222000Y-95838000D03*
X146222000Y-93298000D03*
X148762000Y-95838000D03*
X148762000Y-93298000D03*
X151302000Y-95838000D03*
X151302000Y-93298000D03*
X153842000Y-95838000D03*
X153842000Y-93298000D03*
X156382000Y-95838000D03*
X156382000Y-93298000D03*
X158922000Y-95838000D03*
X158922000Y-93298000D03*
X161462000Y-95838000D03*
X161462000Y-93298000D03*
X164002000Y-95838000D03*
X164002000Y-93298000D03*
X166542000Y-95838000D03*
X166542000Y-93298000D03*
X169082000Y-95838000D03*
X169082000Y-93298000D03*
X171622000Y-95838000D03*
X171622000Y-93298000D03*
X174162000Y-95838000D03*
X174162000Y-93298000D03*
G04 #@! TA.AperFunction,ComponentPad*
G36*
G01*
X126303400Y-114774800D02*
X126303400Y-113324800D01*
G75*
G02*
X126553400Y-113074800I250000J0D01*
G01*
X127753400Y-113074800D01*
G75*
G02*
X128003400Y-113324800I0J-250000D01*
G01*
X128003400Y-114774800D01*
G75*
G02*
X127753400Y-115024800I-250000J0D01*
G01*
X126553400Y-115024800D01*
G75*
G02*
X126303400Y-114774800I0J250000D01*
G01*
G37*
G04 #@! TD.AperFunction*
D12*
X129653400Y-114049800D03*
X132153400Y-114049800D03*
X142313400Y-114049800D03*
X139813400Y-114049800D03*
G04 #@! TA.AperFunction,ComponentPad*
G36*
G01*
X136463400Y-114774800D02*
X136463400Y-113324800D01*
G75*
G02*
X136713400Y-113074800I250000J0D01*
G01*
X137913400Y-113074800D01*
G75*
G02*
X138163400Y-113324800I0J-250000D01*
G01*
X138163400Y-114774800D01*
G75*
G02*
X137913400Y-115024800I-250000J0D01*
G01*
X136713400Y-115024800D01*
G75*
G02*
X136463400Y-114774800I0J250000D01*
G01*
G37*
G04 #@! TD.AperFunction*
G04 #@! TA.AperFunction,ComponentPad*
G36*
G01*
X146623400Y-114774800D02*
X146623400Y-113324800D01*
G75*
G02*
X146873400Y-113074800I250000J0D01*
G01*
X148073400Y-113074800D01*
G75*
G02*
X148323400Y-113324800I0J-250000D01*
G01*
X148323400Y-114774800D01*
G75*
G02*
X148073400Y-115024800I-250000J0D01*
G01*
X146873400Y-115024800D01*
G75*
G02*
X146623400Y-114774800I0J250000D01*
G01*
G37*
G04 #@! TD.AperFunction*
X149973400Y-114049800D03*
X152473400Y-114049800D03*
G04 #@! TA.AperFunction,ComponentPad*
G36*
G01*
X156783400Y-114774800D02*
X156783400Y-113324800D01*
G75*
G02*
X157033400Y-113074800I250000J0D01*
G01*
X158233400Y-113074800D01*
G75*
G02*
X158483400Y-113324800I0J-250000D01*
G01*
X158483400Y-114774800D01*
G75*
G02*
X158233400Y-115024800I-250000J0D01*
G01*
X157033400Y-115024800D01*
G75*
G02*
X156783400Y-114774800I0J250000D01*
G01*
G37*
G04 #@! TD.AperFunction*
X160133400Y-114049800D03*
X162633400Y-114049800D03*
X172793400Y-114049800D03*
X170293400Y-114049800D03*
G04 #@! TA.AperFunction,ComponentPad*
G36*
G01*
X166943400Y-114774800D02*
X166943400Y-113324800D01*
G75*
G02*
X167193400Y-113074800I250000J0D01*
G01*
X168393400Y-113074800D01*
G75*
G02*
X168643400Y-113324800I0J-250000D01*
G01*
X168643400Y-114774800D01*
G75*
G02*
X168393400Y-115024800I-250000J0D01*
G01*
X167193400Y-115024800D01*
G75*
G02*
X166943400Y-114774800I0J250000D01*
G01*
G37*
G04 #@! TD.AperFunction*
D13*
X125902000Y-110298400D02*
X129653400Y-114049800D01*
X125902000Y-95838000D02*
X125902000Y-110298400D01*
X129653400Y-114049800D02*
X129653400Y-115889400D01*
X129653400Y-115889400D02*
X131192000Y-117428000D01*
X136435200Y-117428000D02*
X139813400Y-114049800D01*
X131192000Y-117428000D02*
X136435200Y-117428000D01*
X139813400Y-114049800D02*
X139813400Y-114873400D01*
X139813400Y-114873400D02*
X142368000Y-117428000D01*
X146595200Y-117428000D02*
X149973400Y-114049800D01*
X142368000Y-117428000D02*
X146595200Y-117428000D01*
X149973400Y-114049800D02*
X150165800Y-114049800D01*
X150165800Y-114049800D02*
X153544000Y-117428000D01*
X156755200Y-117428000D02*
X160133400Y-114049800D01*
X153544000Y-117428000D02*
X156755200Y-117428000D01*
X149973400Y-99589400D02*
X146222000Y-95838000D01*
X149973400Y-114049800D02*
X149973400Y-99589400D01*
X170293400Y-114049800D02*
X170293400Y-116172600D01*
X170293400Y-116172600D02*
X168022000Y-118444000D01*
X168022000Y-118444000D02*
X128652000Y-118444000D01*
X124257001Y-94942999D02*
X125902000Y-93298000D01*
X124257001Y-114049001D02*
X124257001Y-94942999D01*
X128652000Y-118444000D02*
X124257001Y-114049001D01*
X125902000Y-93298000D02*
X128442000Y-93298000D01*
D14*
X176974907Y-92061425D02*
X176525425Y-92510907D01*
X176172270Y-93039442D01*
X175929012Y-93626719D01*
X175805000Y-94250168D01*
X175805000Y-94885832D01*
X175929012Y-95509281D01*
X176172270Y-96096558D01*
X176525425Y-96625093D01*
X176974907Y-97074575D01*
X177503442Y-97427730D01*
X178090719Y-97670988D01*
X178714168Y-97795000D01*
X179349832Y-97795000D01*
X179973281Y-97670988D01*
X180560558Y-97427730D01*
X181089093Y-97074575D01*
X181538575Y-96625093D01*
X181822000Y-96200916D01*
X181822001Y-115935085D01*
X181538575Y-115510907D01*
X181089093Y-115061425D01*
X180560558Y-114708270D01*
X179973281Y-114465012D01*
X179349832Y-114341000D01*
X178714168Y-114341000D01*
X178090719Y-114465012D01*
X177503442Y-114708270D01*
X176974907Y-115061425D01*
X176525425Y-115510907D01*
X176172270Y-116039442D01*
X175929012Y-116626719D01*
X175805000Y-117250168D01*
X175805000Y-117885832D01*
X175929012Y-118509281D01*
X176172270Y-119096558D01*
X176525425Y-119625093D01*
X176974907Y-120074575D01*
X177399083Y-120358000D01*
X122664917Y-120358000D01*
X123089093Y-120074575D01*
X123538575Y-119625093D01*
X123891730Y-119096558D01*
X124134988Y-118509281D01*
X124259000Y-117885832D01*
X124259000Y-117250168D01*
X124134988Y-116626719D01*
X123891730Y-116039442D01*
X123538575Y-115510907D01*
X123089093Y-115061425D01*
X122560558Y-114708270D01*
X121973281Y-114465012D01*
X121349832Y-114341000D01*
X120714168Y-114341000D01*
X120090719Y-114465012D01*
X119503442Y-114708270D01*
X118974907Y-115061425D01*
X118525425Y-115510907D01*
X118242000Y-115935083D01*
X118242000Y-96200917D01*
X118525425Y-96625093D01*
X118974907Y-97074575D01*
X119503442Y-97427730D01*
X120090719Y-97670988D01*
X120714168Y-97795000D01*
X121349832Y-97795000D01*
X121973281Y-97670988D01*
X122560558Y-97427730D01*
X123089093Y-97074575D01*
X123497002Y-96666666D01*
X123497001Y-114011679D01*
X123493325Y-114049001D01*
X123497001Y-114086323D01*
X123497001Y-114086333D01*
X123507998Y-114197986D01*
X123549074Y-114333399D01*
X123551455Y-114341247D01*
X123622027Y-114473277D01*
X123622684Y-114474077D01*
X123717000Y-114589002D01*
X123746004Y-114612805D01*
X128088201Y-118955003D01*
X128111999Y-118984001D01*
X128227724Y-119078974D01*
X128359753Y-119149546D01*
X128503014Y-119193003D01*
X128614667Y-119204000D01*
X128614676Y-119204000D01*
X128651999Y-119207676D01*
X128689322Y-119204000D01*
X167984678Y-119204000D01*
X168022000Y-119207676D01*
X168059322Y-119204000D01*
X168059333Y-119204000D01*
X168170986Y-119193003D01*
X168314247Y-119149546D01*
X168446276Y-119078974D01*
X168562001Y-118984001D01*
X168585804Y-118954997D01*
X170804403Y-116736399D01*
X170833401Y-116712601D01*
X170928374Y-116596876D01*
X170998946Y-116464847D01*
X171042403Y-116321586D01*
X171053400Y-116209933D01*
X171053400Y-116209925D01*
X171057076Y-116172600D01*
X171053400Y-116135275D01*
X171053400Y-115452395D01*
X171122414Y-115415506D01*
X171348534Y-115229934D01*
X171534106Y-115003814D01*
X171543400Y-114986426D01*
X171552694Y-115003814D01*
X171738266Y-115229934D01*
X171964387Y-115415506D01*
X172222367Y-115553399D01*
X172502290Y-115638313D01*
X172793400Y-115666985D01*
X173084511Y-115638313D01*
X173364434Y-115553399D01*
X173622414Y-115415506D01*
X173848534Y-115229934D01*
X174034106Y-115003814D01*
X174171999Y-114745833D01*
X174256913Y-114465910D01*
X174278400Y-114247749D01*
X174278400Y-113851850D01*
X174256913Y-113633689D01*
X174171999Y-113353766D01*
X174034106Y-113095786D01*
X173848534Y-112869666D01*
X173622413Y-112684094D01*
X173364433Y-112546201D01*
X173084510Y-112461287D01*
X172793400Y-112432615D01*
X172502289Y-112461287D01*
X172222366Y-112546201D01*
X171964386Y-112684094D01*
X171738266Y-112869666D01*
X171552694Y-113095787D01*
X171543400Y-113113174D01*
X171534106Y-113095786D01*
X171348534Y-112869666D01*
X171122413Y-112684094D01*
X170864433Y-112546201D01*
X170584510Y-112461287D01*
X170293400Y-112432615D01*
X170002289Y-112461287D01*
X169722366Y-112546201D01*
X169464386Y-112684094D01*
X169243455Y-112865408D01*
X169232902Y-112830620D01*
X169173937Y-112720306D01*
X169094585Y-112623615D01*
X168997894Y-112544263D01*
X168887580Y-112485298D01*
X168767882Y-112448988D01*
X168643400Y-112436728D01*
X168079150Y-112439800D01*
X167920400Y-112598550D01*
X167920400Y-113922800D01*
X167940400Y-113922800D01*
X167940400Y-114176800D01*
X167920400Y-114176800D01*
X167920400Y-115501050D01*
X168079150Y-115659800D01*
X168643400Y-115662872D01*
X168767882Y-115650612D01*
X168887580Y-115614302D01*
X168997894Y-115555337D01*
X169094585Y-115475985D01*
X169173937Y-115379294D01*
X169232902Y-115268980D01*
X169243455Y-115234192D01*
X169464387Y-115415506D01*
X169533401Y-115452395D01*
X169533401Y-115857797D01*
X167707199Y-117684000D01*
X157574001Y-117684000D01*
X159671498Y-115586504D01*
X159842290Y-115638313D01*
X160133400Y-115666985D01*
X160424511Y-115638313D01*
X160704434Y-115553399D01*
X160962414Y-115415506D01*
X161188534Y-115229934D01*
X161374106Y-115003814D01*
X161383400Y-114986426D01*
X161392694Y-115003814D01*
X161578266Y-115229934D01*
X161804387Y-115415506D01*
X162062367Y-115553399D01*
X162342290Y-115638313D01*
X162633400Y-115666985D01*
X162924511Y-115638313D01*
X163204434Y-115553399D01*
X163462414Y-115415506D01*
X163688534Y-115229934D01*
X163856883Y-115024800D01*
X166305328Y-115024800D01*
X166317588Y-115149282D01*
X166353898Y-115268980D01*
X166412863Y-115379294D01*
X166492215Y-115475985D01*
X166588906Y-115555337D01*
X166699220Y-115614302D01*
X166818918Y-115650612D01*
X166943400Y-115662872D01*
X167507650Y-115659800D01*
X167666400Y-115501050D01*
X167666400Y-114176800D01*
X166467150Y-114176800D01*
X166308400Y-114335550D01*
X166305328Y-115024800D01*
X163856883Y-115024800D01*
X163874106Y-115003814D01*
X164011999Y-114745833D01*
X164096913Y-114465910D01*
X164118400Y-114247749D01*
X164118400Y-113851850D01*
X164096913Y-113633689D01*
X164011999Y-113353766D01*
X163874106Y-113095786D01*
X163856884Y-113074800D01*
X166305328Y-113074800D01*
X166308400Y-113764050D01*
X166467150Y-113922800D01*
X167666400Y-113922800D01*
X167666400Y-112598550D01*
X167507650Y-112439800D01*
X166943400Y-112436728D01*
X166818918Y-112448988D01*
X166699220Y-112485298D01*
X166588906Y-112544263D01*
X166492215Y-112623615D01*
X166412863Y-112720306D01*
X166353898Y-112830620D01*
X166317588Y-112950318D01*
X166305328Y-113074800D01*
X163856884Y-113074800D01*
X163688534Y-112869666D01*
X163462413Y-112684094D01*
X163204433Y-112546201D01*
X162924510Y-112461287D01*
X162633400Y-112432615D01*
X162342289Y-112461287D01*
X162062366Y-112546201D01*
X161804386Y-112684094D01*
X161578266Y-112869666D01*
X161392694Y-113095787D01*
X161383400Y-113113174D01*
X161374106Y-113095786D01*
X161188534Y-112869666D01*
X160962413Y-112684094D01*
X160704433Y-112546201D01*
X160424510Y-112461287D01*
X160133400Y-112432615D01*
X159842289Y-112461287D01*
X159562366Y-112546201D01*
X159304386Y-112684094D01*
X159083455Y-112865408D01*
X159072902Y-112830620D01*
X159013937Y-112720306D01*
X158934585Y-112623615D01*
X158837894Y-112544263D01*
X158727580Y-112485298D01*
X158607882Y-112448988D01*
X158483400Y-112436728D01*
X157919150Y-112439800D01*
X157760400Y-112598550D01*
X157760400Y-113922800D01*
X157780400Y-113922800D01*
X157780400Y-114176800D01*
X157760400Y-114176800D01*
X157760400Y-114196800D01*
X157506400Y-114196800D01*
X157506400Y-114176800D01*
X156307150Y-114176800D01*
X156148400Y-114335550D01*
X156145328Y-115024800D01*
X156157588Y-115149282D01*
X156193898Y-115268980D01*
X156252863Y-115379294D01*
X156332215Y-115475985D01*
X156428906Y-115555337D01*
X156539220Y-115614302D01*
X156658918Y-115650612D01*
X156783400Y-115662872D01*
X157347650Y-115659800D01*
X157506398Y-115501052D01*
X157506398Y-115602001D01*
X156440399Y-116668000D01*
X153858802Y-116668000D01*
X152814078Y-115623277D01*
X153044434Y-115553399D01*
X153302414Y-115415506D01*
X153528534Y-115229934D01*
X153714106Y-115003814D01*
X153851999Y-114745833D01*
X153936913Y-114465910D01*
X153958400Y-114247749D01*
X153958400Y-113851850D01*
X153936913Y-113633689D01*
X153851999Y-113353766D01*
X153714106Y-113095786D01*
X153696884Y-113074800D01*
X156145328Y-113074800D01*
X156148400Y-113764050D01*
X156307150Y-113922800D01*
X157506400Y-113922800D01*
X157506400Y-112598550D01*
X157347650Y-112439800D01*
X156783400Y-112436728D01*
X156658918Y-112448988D01*
X156539220Y-112485298D01*
X156428906Y-112544263D01*
X156332215Y-112623615D01*
X156252863Y-112720306D01*
X156193898Y-112830620D01*
X156157588Y-112950318D01*
X156145328Y-113074800D01*
X153696884Y-113074800D01*
X153528534Y-112869666D01*
X153302413Y-112684094D01*
X153044433Y-112546201D01*
X152764510Y-112461287D01*
X152473400Y-112432615D01*
X152182289Y-112461287D01*
X151902366Y-112546201D01*
X151644386Y-112684094D01*
X151418266Y-112869666D01*
X151232694Y-113095787D01*
X151223400Y-113113174D01*
X151214106Y-113095786D01*
X151028534Y-112869666D01*
X150802413Y-112684094D01*
X150733400Y-112647206D01*
X150733400Y-99626725D01*
X150737076Y-99589400D01*
X150733400Y-99552075D01*
X150733400Y-99552067D01*
X150722403Y-99440414D01*
X150678946Y-99297153D01*
X150608374Y-99165124D01*
X150513401Y-99049399D01*
X150484403Y-99025601D01*
X148781802Y-97323000D01*
X148908260Y-97323000D01*
X149195158Y-97265932D01*
X149465411Y-97153990D01*
X149708632Y-96991475D01*
X149915475Y-96784632D01*
X150032000Y-96610240D01*
X150148525Y-96784632D01*
X150355368Y-96991475D01*
X150598589Y-97153990D01*
X150868842Y-97265932D01*
X151155740Y-97323000D01*
X151448260Y-97323000D01*
X151735158Y-97265932D01*
X152005411Y-97153990D01*
X152248632Y-96991475D01*
X152455475Y-96784632D01*
X152572000Y-96610240D01*
X152688525Y-96784632D01*
X152895368Y-96991475D01*
X153138589Y-97153990D01*
X153408842Y-97265932D01*
X153695740Y-97323000D01*
X153988260Y-97323000D01*
X154275158Y-97265932D01*
X154545411Y-97153990D01*
X154788632Y-96991475D01*
X154995475Y-96784632D01*
X155117195Y-96602466D01*
X155186822Y-96719355D01*
X155381731Y-96935588D01*
X155615080Y-97109641D01*
X155877901Y-97234825D01*
X156025110Y-97279476D01*
X156255000Y-97158155D01*
X156255000Y-95965000D01*
X156235000Y-95965000D01*
X156235000Y-95711000D01*
X156255000Y-95711000D01*
X156255000Y-95691000D01*
X156509000Y-95691000D01*
X156509000Y-95711000D01*
X156529000Y-95711000D01*
X156529000Y-95965000D01*
X156509000Y-95965000D01*
X156509000Y-97158155D01*
X156738890Y-97279476D01*
X156886099Y-97234825D01*
X157148920Y-97109641D01*
X157382269Y-96935588D01*
X157577178Y-96719355D01*
X157646805Y-96602466D01*
X157768525Y-96784632D01*
X157975368Y-96991475D01*
X158218589Y-97153990D01*
X158488842Y-97265932D01*
X158775740Y-97323000D01*
X159068260Y-97323000D01*
X159355158Y-97265932D01*
X159625411Y-97153990D01*
X159868632Y-96991475D01*
X160075475Y-96784632D01*
X160192000Y-96610240D01*
X160308525Y-96784632D01*
X160515368Y-96991475D01*
X160758589Y-97153990D01*
X161028842Y-97265932D01*
X161315740Y-97323000D01*
X161608260Y-97323000D01*
X161895158Y-97265932D01*
X162165411Y-97153990D01*
X162408632Y-96991475D01*
X162615475Y-96784632D01*
X162732000Y-96610240D01*
X162848525Y-96784632D01*
X163055368Y-96991475D01*
X163298589Y-97153990D01*
X163568842Y-97265932D01*
X163855740Y-97323000D01*
X164148260Y-97323000D01*
X164435158Y-97265932D01*
X164705411Y-97153990D01*
X164948632Y-96991475D01*
X165155475Y-96784632D01*
X165272000Y-96610240D01*
X165388525Y-96784632D01*
X165595368Y-96991475D01*
X165838589Y-97153990D01*
X166108842Y-97265932D01*
X166395740Y-97323000D01*
X166688260Y-97323000D01*
X166975158Y-97265932D01*
X167245411Y-97153990D01*
X167488632Y-96991475D01*
X167695475Y-96784632D01*
X167812000Y-96610240D01*
X167928525Y-96784632D01*
X168135368Y-96991475D01*
X168378589Y-97153990D01*
X168648842Y-97265932D01*
X168935740Y-97323000D01*
X169228260Y-97323000D01*
X169515158Y-97265932D01*
X169785411Y-97153990D01*
X170028632Y-96991475D01*
X170235475Y-96784632D01*
X170352000Y-96610240D01*
X170468525Y-96784632D01*
X170675368Y-96991475D01*
X170918589Y-97153990D01*
X171188842Y-97265932D01*
X171475740Y-97323000D01*
X171768260Y-97323000D01*
X172055158Y-97265932D01*
X172325411Y-97153990D01*
X172568632Y-96991475D01*
X172775475Y-96784632D01*
X172897195Y-96602466D01*
X172966822Y-96719355D01*
X173161731Y-96935588D01*
X173395080Y-97109641D01*
X173657901Y-97234825D01*
X173805110Y-97279476D01*
X174035000Y-97158155D01*
X174035000Y-95965000D01*
X174289000Y-95965000D01*
X174289000Y-97158155D01*
X174518890Y-97279476D01*
X174666099Y-97234825D01*
X174928920Y-97109641D01*
X175162269Y-96935588D01*
X175357178Y-96719355D01*
X175506157Y-96469252D01*
X175603481Y-96194891D01*
X175482814Y-95965000D01*
X174289000Y-95965000D01*
X174035000Y-95965000D01*
X174015000Y-95965000D01*
X174015000Y-95711000D01*
X174035000Y-95711000D01*
X174035000Y-95691000D01*
X174289000Y-95691000D01*
X174289000Y-95711000D01*
X175482814Y-95711000D01*
X175603481Y-95481109D01*
X175506157Y-95206748D01*
X175357178Y-94956645D01*
X175162269Y-94740412D01*
X174932594Y-94569100D01*
X175108632Y-94451475D01*
X175315475Y-94244632D01*
X175477990Y-94001411D01*
X175589932Y-93731158D01*
X175647000Y-93444260D01*
X175647000Y-93151740D01*
X175589932Y-92864842D01*
X175477990Y-92594589D01*
X175315475Y-92351368D01*
X175108632Y-92144525D01*
X174865411Y-91982010D01*
X174595158Y-91870068D01*
X174308260Y-91813000D01*
X174015740Y-91813000D01*
X173728842Y-91870068D01*
X173458589Y-91982010D01*
X173215368Y-92144525D01*
X173008525Y-92351368D01*
X172892000Y-92525760D01*
X172775475Y-92351368D01*
X172568632Y-92144525D01*
X172325411Y-91982010D01*
X172055158Y-91870068D01*
X171768260Y-91813000D01*
X171475740Y-91813000D01*
X171188842Y-91870068D01*
X170918589Y-91982010D01*
X170675368Y-92144525D01*
X170468525Y-92351368D01*
X170352000Y-92525760D01*
X170235475Y-92351368D01*
X170028632Y-92144525D01*
X169785411Y-91982010D01*
X169515158Y-91870068D01*
X169228260Y-91813000D01*
X168935740Y-91813000D01*
X168648842Y-91870068D01*
X168378589Y-91982010D01*
X168135368Y-92144525D01*
X167928525Y-92351368D01*
X167806805Y-92533534D01*
X167737178Y-92416645D01*
X167542269Y-92200412D01*
X167308920Y-92026359D01*
X167046099Y-91901175D01*
X166898890Y-91856524D01*
X166669000Y-91977845D01*
X166669000Y-93171000D01*
X166689000Y-93171000D01*
X166689000Y-93425000D01*
X166669000Y-93425000D01*
X166669000Y-93445000D01*
X166415000Y-93445000D01*
X166415000Y-93425000D01*
X166395000Y-93425000D01*
X166395000Y-93171000D01*
X166415000Y-93171000D01*
X166415000Y-91977845D01*
X166185110Y-91856524D01*
X166037901Y-91901175D01*
X165775080Y-92026359D01*
X165541731Y-92200412D01*
X165346822Y-92416645D01*
X165277195Y-92533534D01*
X165155475Y-92351368D01*
X164948632Y-92144525D01*
X164705411Y-91982010D01*
X164435158Y-91870068D01*
X164148260Y-91813000D01*
X163855740Y-91813000D01*
X163568842Y-91870068D01*
X163298589Y-91982010D01*
X163055368Y-92144525D01*
X162848525Y-92351368D01*
X162726805Y-92533534D01*
X162657178Y-92416645D01*
X162462269Y-92200412D01*
X162228920Y-92026359D01*
X161966099Y-91901175D01*
X161818890Y-91856524D01*
X161589000Y-91977845D01*
X161589000Y-93171000D01*
X161609000Y-93171000D01*
X161609000Y-93425000D01*
X161589000Y-93425000D01*
X161589000Y-93445000D01*
X161335000Y-93445000D01*
X161335000Y-93425000D01*
X161315000Y-93425000D01*
X161315000Y-93171000D01*
X161335000Y-93171000D01*
X161335000Y-91977845D01*
X161105110Y-91856524D01*
X160957901Y-91901175D01*
X160695080Y-92026359D01*
X160461731Y-92200412D01*
X160266822Y-92416645D01*
X160197195Y-92533534D01*
X160075475Y-92351368D01*
X159868632Y-92144525D01*
X159625411Y-91982010D01*
X159355158Y-91870068D01*
X159068260Y-91813000D01*
X158775740Y-91813000D01*
X158488842Y-91870068D01*
X158218589Y-91982010D01*
X157975368Y-92144525D01*
X157768525Y-92351368D01*
X157652000Y-92525760D01*
X157535475Y-92351368D01*
X157328632Y-92144525D01*
X157085411Y-91982010D01*
X156815158Y-91870068D01*
X156528260Y-91813000D01*
X156235740Y-91813000D01*
X155948842Y-91870068D01*
X155678589Y-91982010D01*
X155435368Y-92144525D01*
X155228525Y-92351368D01*
X155112000Y-92525760D01*
X154995475Y-92351368D01*
X154788632Y-92144525D01*
X154545411Y-91982010D01*
X154275158Y-91870068D01*
X153988260Y-91813000D01*
X153695740Y-91813000D01*
X153408842Y-91870068D01*
X153138589Y-91982010D01*
X152895368Y-92144525D01*
X152688525Y-92351368D01*
X152572000Y-92525760D01*
X152455475Y-92351368D01*
X152248632Y-92144525D01*
X152005411Y-91982010D01*
X151735158Y-91870068D01*
X151448260Y-91813000D01*
X151155740Y-91813000D01*
X150868842Y-91870068D01*
X150598589Y-91982010D01*
X150355368Y-92144525D01*
X150148525Y-92351368D01*
X150026805Y-92533534D01*
X149957178Y-92416645D01*
X149762269Y-92200412D01*
X149528920Y-92026359D01*
X149266099Y-91901175D01*
X149118890Y-91856524D01*
X148889000Y-91977845D01*
X148889000Y-93171000D01*
X148909000Y-93171000D01*
X148909000Y-93425000D01*
X148889000Y-93425000D01*
X148889000Y-93445000D01*
X148635000Y-93445000D01*
X148635000Y-93425000D01*
X148615000Y-93425000D01*
X148615000Y-93171000D01*
X148635000Y-93171000D01*
X148635000Y-91977845D01*
X148405110Y-91856524D01*
X148257901Y-91901175D01*
X147995080Y-92026359D01*
X147761731Y-92200412D01*
X147566822Y-92416645D01*
X147497195Y-92533534D01*
X147375475Y-92351368D01*
X147168632Y-92144525D01*
X146925411Y-91982010D01*
X146655158Y-91870068D01*
X146368260Y-91813000D01*
X146075740Y-91813000D01*
X145788842Y-91870068D01*
X145518589Y-91982010D01*
X145275368Y-92144525D01*
X145068525Y-92351368D01*
X144952000Y-92525760D01*
X144835475Y-92351368D01*
X144628632Y-92144525D01*
X144385411Y-91982010D01*
X144115158Y-91870068D01*
X143828260Y-91813000D01*
X143535740Y-91813000D01*
X143248842Y-91870068D01*
X142978589Y-91982010D01*
X142735368Y-92144525D01*
X142528525Y-92351368D01*
X142406805Y-92533534D01*
X142337178Y-92416645D01*
X142142269Y-92200412D01*
X141908920Y-92026359D01*
X141646099Y-91901175D01*
X141498890Y-91856524D01*
X141269000Y-91977845D01*
X141269000Y-93171000D01*
X141289000Y-93171000D01*
X141289000Y-93425000D01*
X141269000Y-93425000D01*
X141269000Y-93445000D01*
X141015000Y-93445000D01*
X141015000Y-93425000D01*
X140995000Y-93425000D01*
X140995000Y-93171000D01*
X141015000Y-93171000D01*
X141015000Y-91977845D01*
X140785110Y-91856524D01*
X140637901Y-91901175D01*
X140375080Y-92026359D01*
X140141731Y-92200412D01*
X139946822Y-92416645D01*
X139877195Y-92533534D01*
X139755475Y-92351368D01*
X139548632Y-92144525D01*
X139305411Y-91982010D01*
X139035158Y-91870068D01*
X138748260Y-91813000D01*
X138455740Y-91813000D01*
X138168842Y-91870068D01*
X137898589Y-91982010D01*
X137655368Y-92144525D01*
X137448525Y-92351368D01*
X137332000Y-92525760D01*
X137215475Y-92351368D01*
X137008632Y-92144525D01*
X136765411Y-91982010D01*
X136495158Y-91870068D01*
X136208260Y-91813000D01*
X135915740Y-91813000D01*
X135628842Y-91870068D01*
X135358589Y-91982010D01*
X135115368Y-92144525D01*
X134908525Y-92351368D01*
X134792000Y-92525760D01*
X134675475Y-92351368D01*
X134468632Y-92144525D01*
X134225411Y-91982010D01*
X133955158Y-91870068D01*
X133668260Y-91813000D01*
X133375740Y-91813000D01*
X133088842Y-91870068D01*
X132818589Y-91982010D01*
X132575368Y-92144525D01*
X132368525Y-92351368D01*
X132246805Y-92533534D01*
X132177178Y-92416645D01*
X131982269Y-92200412D01*
X131748920Y-92026359D01*
X131486099Y-91901175D01*
X131338890Y-91856524D01*
X131109000Y-91977845D01*
X131109000Y-93171000D01*
X131129000Y-93171000D01*
X131129000Y-93425000D01*
X131109000Y-93425000D01*
X131109000Y-93445000D01*
X130855000Y-93445000D01*
X130855000Y-93425000D01*
X130835000Y-93425000D01*
X130835000Y-93171000D01*
X130855000Y-93171000D01*
X130855000Y-91977845D01*
X130625110Y-91856524D01*
X130477901Y-91901175D01*
X130215080Y-92026359D01*
X129981731Y-92200412D01*
X129786822Y-92416645D01*
X129717195Y-92533534D01*
X129595475Y-92351368D01*
X129388632Y-92144525D01*
X129145411Y-91982010D01*
X128875158Y-91870068D01*
X128588260Y-91813000D01*
X128295740Y-91813000D01*
X128008842Y-91870068D01*
X127738589Y-91982010D01*
X127495368Y-92144525D01*
X127288525Y-92351368D01*
X127172000Y-92525760D01*
X127055475Y-92351368D01*
X126848632Y-92144525D01*
X126605411Y-91982010D01*
X126335158Y-91870068D01*
X126048260Y-91813000D01*
X125755740Y-91813000D01*
X125468842Y-91870068D01*
X125198589Y-91982010D01*
X124955368Y-92144525D01*
X124748525Y-92351368D01*
X124586010Y-92594589D01*
X124474068Y-92864842D01*
X124417000Y-93151740D01*
X124417000Y-93444260D01*
X124460791Y-93664408D01*
X124195295Y-93929903D01*
X124134988Y-93626719D01*
X123891730Y-93039442D01*
X123538575Y-92510907D01*
X123089093Y-92061425D01*
X122664917Y-91778000D01*
X177399083Y-91778000D01*
X176974907Y-92061425D01*
G04 #@! TA.AperFunction,Conductor*
D15*
G36*
X176974907Y-92061425D02*
G01*
X176525425Y-92510907D01*
X176172270Y-93039442D01*
X175929012Y-93626719D01*
X175805000Y-94250168D01*
X175805000Y-94885832D01*
X175929012Y-95509281D01*
X176172270Y-96096558D01*
X176525425Y-96625093D01*
X176974907Y-97074575D01*
X177503442Y-97427730D01*
X178090719Y-97670988D01*
X178714168Y-97795000D01*
X179349832Y-97795000D01*
X179973281Y-97670988D01*
X180560558Y-97427730D01*
X181089093Y-97074575D01*
X181538575Y-96625093D01*
X181822000Y-96200916D01*
X181822001Y-115935085D01*
X181538575Y-115510907D01*
X181089093Y-115061425D01*
X180560558Y-114708270D01*
X179973281Y-114465012D01*
X179349832Y-114341000D01*
X178714168Y-114341000D01*
X178090719Y-114465012D01*
X177503442Y-114708270D01*
X176974907Y-115061425D01*
X176525425Y-115510907D01*
X176172270Y-116039442D01*
X175929012Y-116626719D01*
X175805000Y-117250168D01*
X175805000Y-117885832D01*
X175929012Y-118509281D01*
X176172270Y-119096558D01*
X176525425Y-119625093D01*
X176974907Y-120074575D01*
X177399083Y-120358000D01*
X122664917Y-120358000D01*
X123089093Y-120074575D01*
X123538575Y-119625093D01*
X123891730Y-119096558D01*
X124134988Y-118509281D01*
X124259000Y-117885832D01*
X124259000Y-117250168D01*
X124134988Y-116626719D01*
X123891730Y-116039442D01*
X123538575Y-115510907D01*
X123089093Y-115061425D01*
X122560558Y-114708270D01*
X121973281Y-114465012D01*
X121349832Y-114341000D01*
X120714168Y-114341000D01*
X120090719Y-114465012D01*
X119503442Y-114708270D01*
X118974907Y-115061425D01*
X118525425Y-115510907D01*
X118242000Y-115935083D01*
X118242000Y-96200917D01*
X118525425Y-96625093D01*
X118974907Y-97074575D01*
X119503442Y-97427730D01*
X120090719Y-97670988D01*
X120714168Y-97795000D01*
X121349832Y-97795000D01*
X121973281Y-97670988D01*
X122560558Y-97427730D01*
X123089093Y-97074575D01*
X123497002Y-96666666D01*
X123497001Y-114011679D01*
X123493325Y-114049001D01*
X123497001Y-114086323D01*
X123497001Y-114086333D01*
X123507998Y-114197986D01*
X123549074Y-114333399D01*
X123551455Y-114341247D01*
X123622027Y-114473277D01*
X123622684Y-114474077D01*
X123717000Y-114589002D01*
X123746004Y-114612805D01*
X128088201Y-118955003D01*
X128111999Y-118984001D01*
X128227724Y-119078974D01*
X128359753Y-119149546D01*
X128503014Y-119193003D01*
X128614667Y-119204000D01*
X128614676Y-119204000D01*
X128651999Y-119207676D01*
X128689322Y-119204000D01*
X167984678Y-119204000D01*
X168022000Y-119207676D01*
X168059322Y-119204000D01*
X168059333Y-119204000D01*
X168170986Y-119193003D01*
X168314247Y-119149546D01*
X168446276Y-119078974D01*
X168562001Y-118984001D01*
X168585804Y-118954997D01*
X170804403Y-116736399D01*
X170833401Y-116712601D01*
X170928374Y-116596876D01*
X170998946Y-116464847D01*
X171042403Y-116321586D01*
X171053400Y-116209933D01*
X171053400Y-116209925D01*
X171057076Y-116172600D01*
X171053400Y-116135275D01*
X171053400Y-115452395D01*
X171122414Y-115415506D01*
X171348534Y-115229934D01*
X171534106Y-115003814D01*
X171543400Y-114986426D01*
X171552694Y-115003814D01*
X171738266Y-115229934D01*
X171964387Y-115415506D01*
X172222367Y-115553399D01*
X172502290Y-115638313D01*
X172793400Y-115666985D01*
X173084511Y-115638313D01*
X173364434Y-115553399D01*
X173622414Y-115415506D01*
X173848534Y-115229934D01*
X174034106Y-115003814D01*
X174171999Y-114745833D01*
X174256913Y-114465910D01*
X174278400Y-114247749D01*
X174278400Y-113851850D01*
X174256913Y-113633689D01*
X174171999Y-113353766D01*
X174034106Y-113095786D01*
X173848534Y-112869666D01*
X173622413Y-112684094D01*
X173364433Y-112546201D01*
X173084510Y-112461287D01*
X172793400Y-112432615D01*
X172502289Y-112461287D01*
X172222366Y-112546201D01*
X171964386Y-112684094D01*
X171738266Y-112869666D01*
X171552694Y-113095787D01*
X171543400Y-113113174D01*
X171534106Y-113095786D01*
X171348534Y-112869666D01*
X171122413Y-112684094D01*
X170864433Y-112546201D01*
X170584510Y-112461287D01*
X170293400Y-112432615D01*
X170002289Y-112461287D01*
X169722366Y-112546201D01*
X169464386Y-112684094D01*
X169243455Y-112865408D01*
X169232902Y-112830620D01*
X169173937Y-112720306D01*
X169094585Y-112623615D01*
X168997894Y-112544263D01*
X168887580Y-112485298D01*
X168767882Y-112448988D01*
X168643400Y-112436728D01*
X168079150Y-112439800D01*
X167920400Y-112598550D01*
X167920400Y-113922800D01*
X167940400Y-113922800D01*
X167940400Y-114176800D01*
X167920400Y-114176800D01*
X167920400Y-115501050D01*
X168079150Y-115659800D01*
X168643400Y-115662872D01*
X168767882Y-115650612D01*
X168887580Y-115614302D01*
X168997894Y-115555337D01*
X169094585Y-115475985D01*
X169173937Y-115379294D01*
X169232902Y-115268980D01*
X169243455Y-115234192D01*
X169464387Y-115415506D01*
X169533401Y-115452395D01*
X169533401Y-115857797D01*
X167707199Y-117684000D01*
X157574001Y-117684000D01*
X159671498Y-115586504D01*
X159842290Y-115638313D01*
X160133400Y-115666985D01*
X160424511Y-115638313D01*
X160704434Y-115553399D01*
X160962414Y-115415506D01*
X161188534Y-115229934D01*
X161374106Y-115003814D01*
X161383400Y-114986426D01*
X161392694Y-115003814D01*
X161578266Y-115229934D01*
X161804387Y-115415506D01*
X162062367Y-115553399D01*
X162342290Y-115638313D01*
X162633400Y-115666985D01*
X162924511Y-115638313D01*
X163204434Y-115553399D01*
X163462414Y-115415506D01*
X163688534Y-115229934D01*
X163856883Y-115024800D01*
X166305328Y-115024800D01*
X166317588Y-115149282D01*
X166353898Y-115268980D01*
X166412863Y-115379294D01*
X166492215Y-115475985D01*
X166588906Y-115555337D01*
X166699220Y-115614302D01*
X166818918Y-115650612D01*
X166943400Y-115662872D01*
X167507650Y-115659800D01*
X167666400Y-115501050D01*
X167666400Y-114176800D01*
X166467150Y-114176800D01*
X166308400Y-114335550D01*
X166305328Y-115024800D01*
X163856883Y-115024800D01*
X163874106Y-115003814D01*
X164011999Y-114745833D01*
X164096913Y-114465910D01*
X164118400Y-114247749D01*
X164118400Y-113851850D01*
X164096913Y-113633689D01*
X164011999Y-113353766D01*
X163874106Y-113095786D01*
X163856884Y-113074800D01*
X166305328Y-113074800D01*
X166308400Y-113764050D01*
X166467150Y-113922800D01*
X167666400Y-113922800D01*
X167666400Y-112598550D01*
X167507650Y-112439800D01*
X166943400Y-112436728D01*
X166818918Y-112448988D01*
X166699220Y-112485298D01*
X166588906Y-112544263D01*
X166492215Y-112623615D01*
X166412863Y-112720306D01*
X166353898Y-112830620D01*
X166317588Y-112950318D01*
X166305328Y-113074800D01*
X163856884Y-113074800D01*
X163688534Y-112869666D01*
X163462413Y-112684094D01*
X163204433Y-112546201D01*
X162924510Y-112461287D01*
X162633400Y-112432615D01*
X162342289Y-112461287D01*
X162062366Y-112546201D01*
X161804386Y-112684094D01*
X161578266Y-112869666D01*
X161392694Y-113095787D01*
X161383400Y-113113174D01*
X161374106Y-113095786D01*
X161188534Y-112869666D01*
X160962413Y-112684094D01*
X160704433Y-112546201D01*
X160424510Y-112461287D01*
X160133400Y-112432615D01*
X159842289Y-112461287D01*
X159562366Y-112546201D01*
X159304386Y-112684094D01*
X159083455Y-112865408D01*
X159072902Y-112830620D01*
X159013937Y-112720306D01*
X158934585Y-112623615D01*
X158837894Y-112544263D01*
X158727580Y-112485298D01*
X158607882Y-112448988D01*
X158483400Y-112436728D01*
X157919150Y-112439800D01*
X157760400Y-112598550D01*
X157760400Y-113922800D01*
X157780400Y-113922800D01*
X157780400Y-114176800D01*
X157760400Y-114176800D01*
X157760400Y-114196800D01*
X157506400Y-114196800D01*
X157506400Y-114176800D01*
X156307150Y-114176800D01*
X156148400Y-114335550D01*
X156145328Y-115024800D01*
X156157588Y-115149282D01*
X156193898Y-115268980D01*
X156252863Y-115379294D01*
X156332215Y-115475985D01*
X156428906Y-115555337D01*
X156539220Y-115614302D01*
X156658918Y-115650612D01*
X156783400Y-115662872D01*
X157347650Y-115659800D01*
X157506398Y-115501052D01*
X157506398Y-115602001D01*
X156440399Y-116668000D01*
X153858802Y-116668000D01*
X152814078Y-115623277D01*
X153044434Y-115553399D01*
X153302414Y-115415506D01*
X153528534Y-115229934D01*
X153714106Y-115003814D01*
X153851999Y-114745833D01*
X153936913Y-114465910D01*
X153958400Y-114247749D01*
X153958400Y-113851850D01*
X153936913Y-113633689D01*
X153851999Y-113353766D01*
X153714106Y-113095786D01*
X153696884Y-113074800D01*
X156145328Y-113074800D01*
X156148400Y-113764050D01*
X156307150Y-113922800D01*
X157506400Y-113922800D01*
X157506400Y-112598550D01*
X157347650Y-112439800D01*
X156783400Y-112436728D01*
X156658918Y-112448988D01*
X156539220Y-112485298D01*
X156428906Y-112544263D01*
X156332215Y-112623615D01*
X156252863Y-112720306D01*
X156193898Y-112830620D01*
X156157588Y-112950318D01*
X156145328Y-113074800D01*
X153696884Y-113074800D01*
X153528534Y-112869666D01*
X153302413Y-112684094D01*
X153044433Y-112546201D01*
X152764510Y-112461287D01*
X152473400Y-112432615D01*
X152182289Y-112461287D01*
X151902366Y-112546201D01*
X151644386Y-112684094D01*
X151418266Y-112869666D01*
X151232694Y-113095787D01*
X151223400Y-113113174D01*
X151214106Y-113095786D01*
X151028534Y-112869666D01*
X150802413Y-112684094D01*
X150733400Y-112647206D01*
X150733400Y-99626725D01*
X150737076Y-99589400D01*
X150733400Y-99552075D01*
X150733400Y-99552067D01*
X150722403Y-99440414D01*
X150678946Y-99297153D01*
X150608374Y-99165124D01*
X150513401Y-99049399D01*
X150484403Y-99025601D01*
X148781802Y-97323000D01*
X148908260Y-97323000D01*
X149195158Y-97265932D01*
X149465411Y-97153990D01*
X149708632Y-96991475D01*
X149915475Y-96784632D01*
X150032000Y-96610240D01*
X150148525Y-96784632D01*
X150355368Y-96991475D01*
X150598589Y-97153990D01*
X150868842Y-97265932D01*
X151155740Y-97323000D01*
X151448260Y-97323000D01*
X151735158Y-97265932D01*
X152005411Y-97153990D01*
X152248632Y-96991475D01*
X152455475Y-96784632D01*
X152572000Y-96610240D01*
X152688525Y-96784632D01*
X152895368Y-96991475D01*
X153138589Y-97153990D01*
X153408842Y-97265932D01*
X153695740Y-97323000D01*
X153988260Y-97323000D01*
X154275158Y-97265932D01*
X154545411Y-97153990D01*
X154788632Y-96991475D01*
X154995475Y-96784632D01*
X155117195Y-96602466D01*
X155186822Y-96719355D01*
X155381731Y-96935588D01*
X155615080Y-97109641D01*
X155877901Y-97234825D01*
X156025110Y-97279476D01*
X156255000Y-97158155D01*
X156255000Y-95965000D01*
X156235000Y-95965000D01*
X156235000Y-95711000D01*
X156255000Y-95711000D01*
X156255000Y-95691000D01*
X156509000Y-95691000D01*
X156509000Y-95711000D01*
X156529000Y-95711000D01*
X156529000Y-95965000D01*
X156509000Y-95965000D01*
X156509000Y-97158155D01*
X156738890Y-97279476D01*
X156886099Y-97234825D01*
X157148920Y-97109641D01*
X157382269Y-96935588D01*
X157577178Y-96719355D01*
X157646805Y-96602466D01*
X157768525Y-96784632D01*
X157975368Y-96991475D01*
X158218589Y-97153990D01*
X158488842Y-97265932D01*
X158775740Y-97323000D01*
X159068260Y-97323000D01*
X159355158Y-97265932D01*
X159625411Y-97153990D01*
X159868632Y-96991475D01*
X160075475Y-96784632D01*
X160192000Y-96610240D01*
X160308525Y-96784632D01*
X160515368Y-96991475D01*
X160758589Y-97153990D01*
X161028842Y-97265932D01*
X161315740Y-97323000D01*
X161608260Y-97323000D01*
X161895158Y-97265932D01*
X162165411Y-97153990D01*
X162408632Y-96991475D01*
X162615475Y-96784632D01*
X162732000Y-96610240D01*
X162848525Y-96784632D01*
X163055368Y-96991475D01*
X163298589Y-97153990D01*
X163568842Y-97265932D01*
X163855740Y-97323000D01*
X164148260Y-97323000D01*
X164435158Y-97265932D01*
X164705411Y-97153990D01*
X164948632Y-96991475D01*
X165155475Y-96784632D01*
X165272000Y-96610240D01*
X165388525Y-96784632D01*
X165595368Y-96991475D01*
X165838589Y-97153990D01*
X166108842Y-97265932D01*
X166395740Y-97323000D01*
X166688260Y-97323000D01*
X166975158Y-97265932D01*
X167245411Y-97153990D01*
X167488632Y-96991475D01*
X167695475Y-96784632D01*
X167812000Y-96610240D01*
X167928525Y-96784632D01*
X168135368Y-96991475D01*
X168378589Y-97153990D01*
X168648842Y-97265932D01*
X168935740Y-97323000D01*
X169228260Y-97323000D01*
X169515158Y-97265932D01*
X169785411Y-97153990D01*
X170028632Y-96991475D01*
X170235475Y-96784632D01*
X170352000Y-96610240D01*
X170468525Y-96784632D01*
X170675368Y-96991475D01*
X170918589Y-97153990D01*
X171188842Y-97265932D01*
X171475740Y-97323000D01*
X171768260Y-97323000D01*
X172055158Y-97265932D01*
X172325411Y-97153990D01*
X172568632Y-96991475D01*
X172775475Y-96784632D01*
X172897195Y-96602466D01*
X172966822Y-96719355D01*
X173161731Y-96935588D01*
X173395080Y-97109641D01*
X173657901Y-97234825D01*
X173805110Y-97279476D01*
X174035000Y-97158155D01*
X174035000Y-95965000D01*
X174289000Y-95965000D01*
X174289000Y-97158155D01*
X174518890Y-97279476D01*
X174666099Y-97234825D01*
X174928920Y-97109641D01*
X175162269Y-96935588D01*
X175357178Y-96719355D01*
X175506157Y-96469252D01*
X175603481Y-96194891D01*
X175482814Y-95965000D01*
X174289000Y-95965000D01*
X174035000Y-95965000D01*
X174015000Y-95965000D01*
X174015000Y-95711000D01*
X174035000Y-95711000D01*
X174035000Y-95691000D01*
X174289000Y-95691000D01*
X174289000Y-95711000D01*
X175482814Y-95711000D01*
X175603481Y-95481109D01*
X175506157Y-95206748D01*
X175357178Y-94956645D01*
X175162269Y-94740412D01*
X174932594Y-94569100D01*
X175108632Y-94451475D01*
X175315475Y-94244632D01*
X175477990Y-94001411D01*
X175589932Y-93731158D01*
X175647000Y-93444260D01*
X175647000Y-93151740D01*
X175589932Y-92864842D01*
X175477990Y-92594589D01*
X175315475Y-92351368D01*
X175108632Y-92144525D01*
X174865411Y-91982010D01*
X174595158Y-91870068D01*
X174308260Y-91813000D01*
X174015740Y-91813000D01*
X173728842Y-91870068D01*
X173458589Y-91982010D01*
X173215368Y-92144525D01*
X173008525Y-92351368D01*
X172892000Y-92525760D01*
X172775475Y-92351368D01*
X172568632Y-92144525D01*
X172325411Y-91982010D01*
X172055158Y-91870068D01*
X171768260Y-91813000D01*
X171475740Y-91813000D01*
X171188842Y-91870068D01*
X170918589Y-91982010D01*
X170675368Y-92144525D01*
X170468525Y-92351368D01*
X170352000Y-92525760D01*
X170235475Y-92351368D01*
X170028632Y-92144525D01*
X169785411Y-91982010D01*
X169515158Y-91870068D01*
X169228260Y-91813000D01*
X168935740Y-91813000D01*
X168648842Y-91870068D01*
X168378589Y-91982010D01*
X168135368Y-92144525D01*
X167928525Y-92351368D01*
X167806805Y-92533534D01*
X167737178Y-92416645D01*
X167542269Y-92200412D01*
X167308920Y-92026359D01*
X167046099Y-91901175D01*
X166898890Y-91856524D01*
X166669000Y-91977845D01*
X166669000Y-93171000D01*
X166689000Y-93171000D01*
X166689000Y-93425000D01*
X166669000Y-93425000D01*
X166669000Y-93445000D01*
X166415000Y-93445000D01*
X166415000Y-93425000D01*
X166395000Y-93425000D01*
X166395000Y-93171000D01*
X166415000Y-93171000D01*
X166415000Y-91977845D01*
X166185110Y-91856524D01*
X166037901Y-91901175D01*
X165775080Y-92026359D01*
X165541731Y-92200412D01*
X165346822Y-92416645D01*
X165277195Y-92533534D01*
X165155475Y-92351368D01*
X164948632Y-92144525D01*
X164705411Y-91982010D01*
X164435158Y-91870068D01*
X164148260Y-91813000D01*
X163855740Y-91813000D01*
X163568842Y-91870068D01*
X163298589Y-91982010D01*
X163055368Y-92144525D01*
X162848525Y-92351368D01*
X162726805Y-92533534D01*
X162657178Y-92416645D01*
X162462269Y-92200412D01*
X162228920Y-92026359D01*
X161966099Y-91901175D01*
X161818890Y-91856524D01*
X161589000Y-91977845D01*
X161589000Y-93171000D01*
X161609000Y-93171000D01*
X161609000Y-93425000D01*
X161589000Y-93425000D01*
X161589000Y-93445000D01*
X161335000Y-93445000D01*
X161335000Y-93425000D01*
X161315000Y-93425000D01*
X161315000Y-93171000D01*
X161335000Y-93171000D01*
X161335000Y-91977845D01*
X161105110Y-91856524D01*
X160957901Y-91901175D01*
X160695080Y-92026359D01*
X160461731Y-92200412D01*
X160266822Y-92416645D01*
X160197195Y-92533534D01*
X160075475Y-92351368D01*
X159868632Y-92144525D01*
X159625411Y-91982010D01*
X159355158Y-91870068D01*
X159068260Y-91813000D01*
X158775740Y-91813000D01*
X158488842Y-91870068D01*
X158218589Y-91982010D01*
X157975368Y-92144525D01*
X157768525Y-92351368D01*
X157652000Y-92525760D01*
X157535475Y-92351368D01*
X157328632Y-92144525D01*
X157085411Y-91982010D01*
X156815158Y-91870068D01*
X156528260Y-91813000D01*
X156235740Y-91813000D01*
X155948842Y-91870068D01*
X155678589Y-91982010D01*
X155435368Y-92144525D01*
X155228525Y-92351368D01*
X155112000Y-92525760D01*
X154995475Y-92351368D01*
X154788632Y-92144525D01*
X154545411Y-91982010D01*
X154275158Y-91870068D01*
X153988260Y-91813000D01*
X153695740Y-91813000D01*
X153408842Y-91870068D01*
X153138589Y-91982010D01*
X152895368Y-92144525D01*
X152688525Y-92351368D01*
X152572000Y-92525760D01*
X152455475Y-92351368D01*
X152248632Y-92144525D01*
X152005411Y-91982010D01*
X151735158Y-91870068D01*
X151448260Y-91813000D01*
X151155740Y-91813000D01*
X150868842Y-91870068D01*
X150598589Y-91982010D01*
X150355368Y-92144525D01*
X150148525Y-92351368D01*
X150026805Y-92533534D01*
X149957178Y-92416645D01*
X149762269Y-92200412D01*
X149528920Y-92026359D01*
X149266099Y-91901175D01*
X149118890Y-91856524D01*
X148889000Y-91977845D01*
X148889000Y-93171000D01*
X148909000Y-93171000D01*
X148909000Y-93425000D01*
X148889000Y-93425000D01*
X148889000Y-93445000D01*
X148635000Y-93445000D01*
X148635000Y-93425000D01*
X148615000Y-93425000D01*
X148615000Y-93171000D01*
X148635000Y-93171000D01*
X148635000Y-91977845D01*
X148405110Y-91856524D01*
X148257901Y-91901175D01*
X147995080Y-92026359D01*
X147761731Y-92200412D01*
X147566822Y-92416645D01*
X147497195Y-92533534D01*
X147375475Y-92351368D01*
X147168632Y-92144525D01*
X146925411Y-91982010D01*
X146655158Y-91870068D01*
X146368260Y-91813000D01*
X146075740Y-91813000D01*
X145788842Y-91870068D01*
X145518589Y-91982010D01*
X145275368Y-92144525D01*
X145068525Y-92351368D01*
X144952000Y-92525760D01*
X144835475Y-92351368D01*
X144628632Y-92144525D01*
X144385411Y-91982010D01*
X144115158Y-91870068D01*
X143828260Y-91813000D01*
X143535740Y-91813000D01*
X143248842Y-91870068D01*
X142978589Y-91982010D01*
X142735368Y-92144525D01*
X142528525Y-92351368D01*
X142406805Y-92533534D01*
X142337178Y-92416645D01*
X142142269Y-92200412D01*
X141908920Y-92026359D01*
X141646099Y-91901175D01*
X141498890Y-91856524D01*
X141269000Y-91977845D01*
X141269000Y-93171000D01*
X141289000Y-93171000D01*
X141289000Y-93425000D01*
X141269000Y-93425000D01*
X141269000Y-93445000D01*
X141015000Y-93445000D01*
X141015000Y-93425000D01*
X140995000Y-93425000D01*
X140995000Y-93171000D01*
X141015000Y-93171000D01*
X141015000Y-91977845D01*
X140785110Y-91856524D01*
X140637901Y-91901175D01*
X140375080Y-92026359D01*
X140141731Y-92200412D01*
X139946822Y-92416645D01*
X139877195Y-92533534D01*
X139755475Y-92351368D01*
X139548632Y-92144525D01*
X139305411Y-91982010D01*
X139035158Y-91870068D01*
X138748260Y-91813000D01*
X138455740Y-91813000D01*
X138168842Y-91870068D01*
X137898589Y-91982010D01*
X137655368Y-92144525D01*
X137448525Y-92351368D01*
X137332000Y-92525760D01*
X137215475Y-92351368D01*
X137008632Y-92144525D01*
X136765411Y-91982010D01*
X136495158Y-91870068D01*
X136208260Y-91813000D01*
X135915740Y-91813000D01*
X135628842Y-91870068D01*
X135358589Y-91982010D01*
X135115368Y-92144525D01*
X134908525Y-92351368D01*
X134792000Y-92525760D01*
X134675475Y-92351368D01*
X134468632Y-92144525D01*
X134225411Y-91982010D01*
X133955158Y-91870068D01*
X133668260Y-91813000D01*
X133375740Y-91813000D01*
X133088842Y-91870068D01*
X132818589Y-91982010D01*
X132575368Y-92144525D01*
X132368525Y-92351368D01*
X132246805Y-92533534D01*
X132177178Y-92416645D01*
X131982269Y-92200412D01*
X131748920Y-92026359D01*
X131486099Y-91901175D01*
X131338890Y-91856524D01*
X131109000Y-91977845D01*
X131109000Y-93171000D01*
X131129000Y-93171000D01*
X131129000Y-93425000D01*
X131109000Y-93425000D01*
X131109000Y-93445000D01*
X130855000Y-93445000D01*
X130855000Y-93425000D01*
X130835000Y-93425000D01*
X130835000Y-93171000D01*
X130855000Y-93171000D01*
X130855000Y-91977845D01*
X130625110Y-91856524D01*
X130477901Y-91901175D01*
X130215080Y-92026359D01*
X129981731Y-92200412D01*
X129786822Y-92416645D01*
X129717195Y-92533534D01*
X129595475Y-92351368D01*
X129388632Y-92144525D01*
X129145411Y-91982010D01*
X128875158Y-91870068D01*
X128588260Y-91813000D01*
X128295740Y-91813000D01*
X128008842Y-91870068D01*
X127738589Y-91982010D01*
X127495368Y-92144525D01*
X127288525Y-92351368D01*
X127172000Y-92525760D01*
X127055475Y-92351368D01*
X126848632Y-92144525D01*
X126605411Y-91982010D01*
X126335158Y-91870068D01*
X126048260Y-91813000D01*
X125755740Y-91813000D01*
X125468842Y-91870068D01*
X125198589Y-91982010D01*
X124955368Y-92144525D01*
X124748525Y-92351368D01*
X124586010Y-92594589D01*
X124474068Y-92864842D01*
X124417000Y-93151740D01*
X124417000Y-93444260D01*
X124460791Y-93664408D01*
X124195295Y-93929903D01*
X124134988Y-93626719D01*
X123891730Y-93039442D01*
X123538575Y-92510907D01*
X123089093Y-92061425D01*
X122664917Y-91778000D01*
X177399083Y-91778000D01*
X176974907Y-92061425D01*
G37*
G04 #@! TD.AperFunction*
D14*
X125052000Y-97326072D02*
X125142000Y-97326072D01*
X125142001Y-110261068D01*
X125138324Y-110298400D01*
X125152998Y-110447385D01*
X125196454Y-110590646D01*
X125267026Y-110722676D01*
X125338201Y-110809402D01*
X125362000Y-110838401D01*
X125390998Y-110862199D01*
X127026398Y-112497600D01*
X127026398Y-112598548D01*
X126867650Y-112439800D01*
X126303400Y-112436728D01*
X126178918Y-112448988D01*
X126059220Y-112485298D01*
X125948906Y-112544263D01*
X125852215Y-112623615D01*
X125772863Y-112720306D01*
X125713898Y-112830620D01*
X125677588Y-112950318D01*
X125665328Y-113074800D01*
X125668400Y-113764050D01*
X125827150Y-113922800D01*
X127026400Y-113922800D01*
X127026400Y-113902800D01*
X127280400Y-113902800D01*
X127280400Y-113922800D01*
X127300400Y-113922800D01*
X127300400Y-114176800D01*
X127280400Y-114176800D01*
X127280400Y-115501050D01*
X127439150Y-115659800D01*
X128003400Y-115662872D01*
X128127882Y-115650612D01*
X128247580Y-115614302D01*
X128357894Y-115555337D01*
X128454585Y-115475985D01*
X128533937Y-115379294D01*
X128592902Y-115268980D01*
X128603455Y-115234192D01*
X128824387Y-115415506D01*
X128893401Y-115452395D01*
X128893401Y-115852068D01*
X128889724Y-115889400D01*
X128893401Y-115926733D01*
X128904398Y-116038386D01*
X128917580Y-116081842D01*
X128947854Y-116181646D01*
X129018426Y-116313676D01*
X129089601Y-116400402D01*
X129113400Y-116429401D01*
X129142398Y-116453199D01*
X130373198Y-117684000D01*
X128966802Y-117684000D01*
X126905126Y-115622324D01*
X127026400Y-115501050D01*
X127026400Y-114176800D01*
X125827150Y-114176800D01*
X125668400Y-114335550D01*
X125668178Y-114385377D01*
X125017001Y-113734200D01*
X125017001Y-97322625D01*
X125052000Y-97326072D01*
G04 #@! TA.AperFunction,Conductor*
D15*
G36*
X125052000Y-97326072D02*
G01*
X125142000Y-97326072D01*
X125142001Y-110261068D01*
X125138324Y-110298400D01*
X125152998Y-110447385D01*
X125196454Y-110590646D01*
X125267026Y-110722676D01*
X125338201Y-110809402D01*
X125362000Y-110838401D01*
X125390998Y-110862199D01*
X127026398Y-112497600D01*
X127026398Y-112598548D01*
X126867650Y-112439800D01*
X126303400Y-112436728D01*
X126178918Y-112448988D01*
X126059220Y-112485298D01*
X125948906Y-112544263D01*
X125852215Y-112623615D01*
X125772863Y-112720306D01*
X125713898Y-112830620D01*
X125677588Y-112950318D01*
X125665328Y-113074800D01*
X125668400Y-113764050D01*
X125827150Y-113922800D01*
X127026400Y-113922800D01*
X127026400Y-113902800D01*
X127280400Y-113902800D01*
X127280400Y-113922800D01*
X127300400Y-113922800D01*
X127300400Y-114176800D01*
X127280400Y-114176800D01*
X127280400Y-115501050D01*
X127439150Y-115659800D01*
X128003400Y-115662872D01*
X128127882Y-115650612D01*
X128247580Y-115614302D01*
X128357894Y-115555337D01*
X128454585Y-115475985D01*
X128533937Y-115379294D01*
X128592902Y-115268980D01*
X128603455Y-115234192D01*
X128824387Y-115415506D01*
X128893401Y-115452395D01*
X128893401Y-115852068D01*
X128889724Y-115889400D01*
X128893401Y-115926733D01*
X128904398Y-116038386D01*
X128917580Y-116081842D01*
X128947854Y-116181646D01*
X129018426Y-116313676D01*
X129089601Y-116400402D01*
X129113400Y-116429401D01*
X129142398Y-116453199D01*
X130373198Y-117684000D01*
X128966802Y-117684000D01*
X126905126Y-115622324D01*
X127026400Y-115501050D01*
X127026400Y-114176800D01*
X125827150Y-114176800D01*
X125668400Y-114335550D01*
X125668178Y-114385377D01*
X125017001Y-113734200D01*
X125017001Y-97322625D01*
X125052000Y-97326072D01*
G37*
G04 #@! TD.AperFunction*
D14*
X136189000Y-95711000D02*
X136209000Y-95711000D01*
X136209000Y-95965000D01*
X136189000Y-95965000D01*
X136189000Y-97158155D01*
X136418890Y-97279476D01*
X136566099Y-97234825D01*
X136828920Y-97109641D01*
X137062269Y-96935588D01*
X137257178Y-96719355D01*
X137326805Y-96602466D01*
X137448525Y-96784632D01*
X137655368Y-96991475D01*
X137898589Y-97153990D01*
X138168842Y-97265932D01*
X138455740Y-97323000D01*
X138748260Y-97323000D01*
X139035158Y-97265932D01*
X139305411Y-97153990D01*
X139548632Y-96991475D01*
X139755475Y-96784632D01*
X139872000Y-96610240D01*
X139988525Y-96784632D01*
X140195368Y-96991475D01*
X140438589Y-97153990D01*
X140708842Y-97265932D01*
X140995740Y-97323000D01*
X141288260Y-97323000D01*
X141575158Y-97265932D01*
X141845411Y-97153990D01*
X142088632Y-96991475D01*
X142295475Y-96784632D01*
X142412000Y-96610240D01*
X142528525Y-96784632D01*
X142735368Y-96991475D01*
X142978589Y-97153990D01*
X143248842Y-97265932D01*
X143535740Y-97323000D01*
X143828260Y-97323000D01*
X144115158Y-97265932D01*
X144385411Y-97153990D01*
X144628632Y-96991475D01*
X144835475Y-96784632D01*
X144952000Y-96610240D01*
X145068525Y-96784632D01*
X145275368Y-96991475D01*
X145518589Y-97153990D01*
X145788842Y-97265932D01*
X146075740Y-97323000D01*
X146368260Y-97323000D01*
X146588408Y-97279209D01*
X149213401Y-99904203D01*
X149213400Y-112647205D01*
X149144386Y-112684094D01*
X148923455Y-112865408D01*
X148912902Y-112830620D01*
X148853937Y-112720306D01*
X148774585Y-112623615D01*
X148677894Y-112544263D01*
X148567580Y-112485298D01*
X148447882Y-112448988D01*
X148323400Y-112436728D01*
X147759150Y-112439800D01*
X147600400Y-112598550D01*
X147600400Y-113922800D01*
X147620400Y-113922800D01*
X147620400Y-114176800D01*
X147600400Y-114176800D01*
X147600400Y-114196800D01*
X147346400Y-114196800D01*
X147346400Y-114176800D01*
X146147150Y-114176800D01*
X145988400Y-114335550D01*
X145985328Y-115024800D01*
X145997588Y-115149282D01*
X146033898Y-115268980D01*
X146092863Y-115379294D01*
X146172215Y-115475985D01*
X146268906Y-115555337D01*
X146379220Y-115614302D01*
X146498918Y-115650612D01*
X146623400Y-115662872D01*
X147187650Y-115659800D01*
X147346398Y-115501052D01*
X147346398Y-115602001D01*
X146280399Y-116668000D01*
X142682802Y-116668000D01*
X141038108Y-115023307D01*
X141054106Y-115003814D01*
X141063400Y-114986426D01*
X141072694Y-115003814D01*
X141258266Y-115229934D01*
X141484387Y-115415506D01*
X141742367Y-115553399D01*
X142022290Y-115638313D01*
X142313400Y-115666985D01*
X142604511Y-115638313D01*
X142884434Y-115553399D01*
X143142414Y-115415506D01*
X143368534Y-115229934D01*
X143554106Y-115003814D01*
X143691999Y-114745833D01*
X143776913Y-114465910D01*
X143798400Y-114247749D01*
X143798400Y-113851850D01*
X143776913Y-113633689D01*
X143691999Y-113353766D01*
X143554106Y-113095786D01*
X143536884Y-113074800D01*
X145985328Y-113074800D01*
X145988400Y-113764050D01*
X146147150Y-113922800D01*
X147346400Y-113922800D01*
X147346400Y-112598550D01*
X147187650Y-112439800D01*
X146623400Y-112436728D01*
X146498918Y-112448988D01*
X146379220Y-112485298D01*
X146268906Y-112544263D01*
X146172215Y-112623615D01*
X146092863Y-112720306D01*
X146033898Y-112830620D01*
X145997588Y-112950318D01*
X145985328Y-113074800D01*
X143536884Y-113074800D01*
X143368534Y-112869666D01*
X143142413Y-112684094D01*
X142884433Y-112546201D01*
X142604510Y-112461287D01*
X142313400Y-112432615D01*
X142022289Y-112461287D01*
X141742366Y-112546201D01*
X141484386Y-112684094D01*
X141258266Y-112869666D01*
X141072694Y-113095787D01*
X141063400Y-113113174D01*
X141054106Y-113095786D01*
X140868534Y-112869666D01*
X140642413Y-112684094D01*
X140384433Y-112546201D01*
X140104510Y-112461287D01*
X139813400Y-112432615D01*
X139522289Y-112461287D01*
X139242366Y-112546201D01*
X138984386Y-112684094D01*
X138763455Y-112865408D01*
X138752902Y-112830620D01*
X138693937Y-112720306D01*
X138614585Y-112623615D01*
X138517894Y-112544263D01*
X138407580Y-112485298D01*
X138287882Y-112448988D01*
X138163400Y-112436728D01*
X137599150Y-112439800D01*
X137440400Y-112598550D01*
X137440400Y-113922800D01*
X137460400Y-113922800D01*
X137460400Y-114176800D01*
X137440400Y-114176800D01*
X137440400Y-114196800D01*
X137186400Y-114196800D01*
X137186400Y-114176800D01*
X135987150Y-114176800D01*
X135828400Y-114335550D01*
X135825328Y-115024800D01*
X135837588Y-115149282D01*
X135873898Y-115268980D01*
X135932863Y-115379294D01*
X136012215Y-115475985D01*
X136108906Y-115555337D01*
X136219220Y-115614302D01*
X136338918Y-115650612D01*
X136463400Y-115662872D01*
X137027650Y-115659800D01*
X137186398Y-115501052D01*
X137186398Y-115602001D01*
X136120399Y-116668000D01*
X131506802Y-116668000D01*
X130413400Y-115574599D01*
X130413400Y-115452395D01*
X130482414Y-115415506D01*
X130708534Y-115229934D01*
X130894106Y-115003814D01*
X130903400Y-114986426D01*
X130912694Y-115003814D01*
X131098266Y-115229934D01*
X131324387Y-115415506D01*
X131582367Y-115553399D01*
X131862290Y-115638313D01*
X132153400Y-115666985D01*
X132444511Y-115638313D01*
X132724434Y-115553399D01*
X132982414Y-115415506D01*
X133208534Y-115229934D01*
X133394106Y-115003814D01*
X133531999Y-114745833D01*
X133616913Y-114465910D01*
X133638400Y-114247749D01*
X133638400Y-113851850D01*
X133616913Y-113633689D01*
X133531999Y-113353766D01*
X133394106Y-113095786D01*
X133376884Y-113074800D01*
X135825328Y-113074800D01*
X135828400Y-113764050D01*
X135987150Y-113922800D01*
X137186400Y-113922800D01*
X137186400Y-112598550D01*
X137027650Y-112439800D01*
X136463400Y-112436728D01*
X136338918Y-112448988D01*
X136219220Y-112485298D01*
X136108906Y-112544263D01*
X136012215Y-112623615D01*
X135932863Y-112720306D01*
X135873898Y-112830620D01*
X135837588Y-112950318D01*
X135825328Y-113074800D01*
X133376884Y-113074800D01*
X133208534Y-112869666D01*
X132982413Y-112684094D01*
X132724433Y-112546201D01*
X132444510Y-112461287D01*
X132153400Y-112432615D01*
X131862289Y-112461287D01*
X131582366Y-112546201D01*
X131324386Y-112684094D01*
X131098266Y-112869666D01*
X130912694Y-113095787D01*
X130903400Y-113113174D01*
X130894106Y-113095786D01*
X130708534Y-112869666D01*
X130482413Y-112684094D01*
X130224433Y-112546201D01*
X129944510Y-112461287D01*
X129653400Y-112432615D01*
X129362289Y-112461287D01*
X129191498Y-112513096D01*
X126662000Y-109983599D01*
X126662000Y-97326072D01*
X126752000Y-97326072D01*
X126876482Y-97313812D01*
X126996180Y-97277502D01*
X127106494Y-97218537D01*
X127203185Y-97139185D01*
X127282537Y-97042494D01*
X127341502Y-96932180D01*
X127363513Y-96859620D01*
X127495368Y-96991475D01*
X127738589Y-97153990D01*
X128008842Y-97265932D01*
X128295740Y-97323000D01*
X128588260Y-97323000D01*
X128875158Y-97265932D01*
X129145411Y-97153990D01*
X129388632Y-96991475D01*
X129595475Y-96784632D01*
X129712000Y-96610240D01*
X129828525Y-96784632D01*
X130035368Y-96991475D01*
X130278589Y-97153990D01*
X130548842Y-97265932D01*
X130835740Y-97323000D01*
X131128260Y-97323000D01*
X131415158Y-97265932D01*
X131685411Y-97153990D01*
X131928632Y-96991475D01*
X132135475Y-96784632D01*
X132252000Y-96610240D01*
X132368525Y-96784632D01*
X132575368Y-96991475D01*
X132818589Y-97153990D01*
X133088842Y-97265932D01*
X133375740Y-97323000D01*
X133668260Y-97323000D01*
X133955158Y-97265932D01*
X134225411Y-97153990D01*
X134468632Y-96991475D01*
X134675475Y-96784632D01*
X134797195Y-96602466D01*
X134866822Y-96719355D01*
X135061731Y-96935588D01*
X135295080Y-97109641D01*
X135557901Y-97234825D01*
X135705110Y-97279476D01*
X135935000Y-97158155D01*
X135935000Y-95965000D01*
X135915000Y-95965000D01*
X135915000Y-95711000D01*
X135935000Y-95711000D01*
X135935000Y-95691000D01*
X136189000Y-95691000D01*
X136189000Y-95711000D01*
G04 #@! TA.AperFunction,Conductor*
D15*
G36*
X136189000Y-95711000D02*
G01*
X136209000Y-95711000D01*
X136209000Y-95965000D01*
X136189000Y-95965000D01*
X136189000Y-97158155D01*
X136418890Y-97279476D01*
X136566099Y-97234825D01*
X136828920Y-97109641D01*
X137062269Y-96935588D01*
X137257178Y-96719355D01*
X137326805Y-96602466D01*
X137448525Y-96784632D01*
X137655368Y-96991475D01*
X137898589Y-97153990D01*
X138168842Y-97265932D01*
X138455740Y-97323000D01*
X138748260Y-97323000D01*
X139035158Y-97265932D01*
X139305411Y-97153990D01*
X139548632Y-96991475D01*
X139755475Y-96784632D01*
X139872000Y-96610240D01*
X139988525Y-96784632D01*
X140195368Y-96991475D01*
X140438589Y-97153990D01*
X140708842Y-97265932D01*
X140995740Y-97323000D01*
X141288260Y-97323000D01*
X141575158Y-97265932D01*
X141845411Y-97153990D01*
X142088632Y-96991475D01*
X142295475Y-96784632D01*
X142412000Y-96610240D01*
X142528525Y-96784632D01*
X142735368Y-96991475D01*
X142978589Y-97153990D01*
X143248842Y-97265932D01*
X143535740Y-97323000D01*
X143828260Y-97323000D01*
X144115158Y-97265932D01*
X144385411Y-97153990D01*
X144628632Y-96991475D01*
X144835475Y-96784632D01*
X144952000Y-96610240D01*
X145068525Y-96784632D01*
X145275368Y-96991475D01*
X145518589Y-97153990D01*
X145788842Y-97265932D01*
X146075740Y-97323000D01*
X146368260Y-97323000D01*
X146588408Y-97279209D01*
X149213401Y-99904203D01*
X149213400Y-112647205D01*
X149144386Y-112684094D01*
X148923455Y-112865408D01*
X148912902Y-112830620D01*
X148853937Y-112720306D01*
X148774585Y-112623615D01*
X148677894Y-112544263D01*
X148567580Y-112485298D01*
X148447882Y-112448988D01*
X148323400Y-112436728D01*
X147759150Y-112439800D01*
X147600400Y-112598550D01*
X147600400Y-113922800D01*
X147620400Y-113922800D01*
X147620400Y-114176800D01*
X147600400Y-114176800D01*
X147600400Y-114196800D01*
X147346400Y-114196800D01*
X147346400Y-114176800D01*
X146147150Y-114176800D01*
X145988400Y-114335550D01*
X145985328Y-115024800D01*
X145997588Y-115149282D01*
X146033898Y-115268980D01*
X146092863Y-115379294D01*
X146172215Y-115475985D01*
X146268906Y-115555337D01*
X146379220Y-115614302D01*
X146498918Y-115650612D01*
X146623400Y-115662872D01*
X147187650Y-115659800D01*
X147346398Y-115501052D01*
X147346398Y-115602001D01*
X146280399Y-116668000D01*
X142682802Y-116668000D01*
X141038108Y-115023307D01*
X141054106Y-115003814D01*
X141063400Y-114986426D01*
X141072694Y-115003814D01*
X141258266Y-115229934D01*
X141484387Y-115415506D01*
X141742367Y-115553399D01*
X142022290Y-115638313D01*
X142313400Y-115666985D01*
X142604511Y-115638313D01*
X142884434Y-115553399D01*
X143142414Y-115415506D01*
X143368534Y-115229934D01*
X143554106Y-115003814D01*
X143691999Y-114745833D01*
X143776913Y-114465910D01*
X143798400Y-114247749D01*
X143798400Y-113851850D01*
X143776913Y-113633689D01*
X143691999Y-113353766D01*
X143554106Y-113095786D01*
X143536884Y-113074800D01*
X145985328Y-113074800D01*
X145988400Y-113764050D01*
X146147150Y-113922800D01*
X147346400Y-113922800D01*
X147346400Y-112598550D01*
X147187650Y-112439800D01*
X146623400Y-112436728D01*
X146498918Y-112448988D01*
X146379220Y-112485298D01*
X146268906Y-112544263D01*
X146172215Y-112623615D01*
X146092863Y-112720306D01*
X146033898Y-112830620D01*
X145997588Y-112950318D01*
X145985328Y-113074800D01*
X143536884Y-113074800D01*
X143368534Y-112869666D01*
X143142413Y-112684094D01*
X142884433Y-112546201D01*
X142604510Y-112461287D01*
X142313400Y-112432615D01*
X142022289Y-112461287D01*
X141742366Y-112546201D01*
X141484386Y-112684094D01*
X141258266Y-112869666D01*
X141072694Y-113095787D01*
X141063400Y-113113174D01*
X141054106Y-113095786D01*
X140868534Y-112869666D01*
X140642413Y-112684094D01*
X140384433Y-112546201D01*
X140104510Y-112461287D01*
X139813400Y-112432615D01*
X139522289Y-112461287D01*
X139242366Y-112546201D01*
X138984386Y-112684094D01*
X138763455Y-112865408D01*
X138752902Y-112830620D01*
X138693937Y-112720306D01*
X138614585Y-112623615D01*
X138517894Y-112544263D01*
X138407580Y-112485298D01*
X138287882Y-112448988D01*
X138163400Y-112436728D01*
X137599150Y-112439800D01*
X137440400Y-112598550D01*
X137440400Y-113922800D01*
X137460400Y-113922800D01*
X137460400Y-114176800D01*
X137440400Y-114176800D01*
X137440400Y-114196800D01*
X137186400Y-114196800D01*
X137186400Y-114176800D01*
X135987150Y-114176800D01*
X135828400Y-114335550D01*
X135825328Y-115024800D01*
X135837588Y-115149282D01*
X135873898Y-115268980D01*
X135932863Y-115379294D01*
X136012215Y-115475985D01*
X136108906Y-115555337D01*
X136219220Y-115614302D01*
X136338918Y-115650612D01*
X136463400Y-115662872D01*
X137027650Y-115659800D01*
X137186398Y-115501052D01*
X137186398Y-115602001D01*
X136120399Y-116668000D01*
X131506802Y-116668000D01*
X130413400Y-115574599D01*
X130413400Y-115452395D01*
X130482414Y-115415506D01*
X130708534Y-115229934D01*
X130894106Y-115003814D01*
X130903400Y-114986426D01*
X130912694Y-115003814D01*
X131098266Y-115229934D01*
X131324387Y-115415506D01*
X131582367Y-115553399D01*
X131862290Y-115638313D01*
X132153400Y-115666985D01*
X132444511Y-115638313D01*
X132724434Y-115553399D01*
X132982414Y-115415506D01*
X133208534Y-115229934D01*
X133394106Y-115003814D01*
X133531999Y-114745833D01*
X133616913Y-114465910D01*
X133638400Y-114247749D01*
X133638400Y-113851850D01*
X133616913Y-113633689D01*
X133531999Y-113353766D01*
X133394106Y-113095786D01*
X133376884Y-113074800D01*
X135825328Y-113074800D01*
X135828400Y-113764050D01*
X135987150Y-113922800D01*
X137186400Y-113922800D01*
X137186400Y-112598550D01*
X137027650Y-112439800D01*
X136463400Y-112436728D01*
X136338918Y-112448988D01*
X136219220Y-112485298D01*
X136108906Y-112544263D01*
X136012215Y-112623615D01*
X135932863Y-112720306D01*
X135873898Y-112830620D01*
X135837588Y-112950318D01*
X135825328Y-113074800D01*
X133376884Y-113074800D01*
X133208534Y-112869666D01*
X132982413Y-112684094D01*
X132724433Y-112546201D01*
X132444510Y-112461287D01*
X132153400Y-112432615D01*
X131862289Y-112461287D01*
X131582366Y-112546201D01*
X131324386Y-112684094D01*
X131098266Y-112869666D01*
X130912694Y-113095787D01*
X130903400Y-113113174D01*
X130894106Y-113095786D01*
X130708534Y-112869666D01*
X130482413Y-112684094D01*
X130224433Y-112546201D01*
X129944510Y-112461287D01*
X129653400Y-112432615D01*
X129362289Y-112461287D01*
X129191498Y-112513096D01*
X126662000Y-109983599D01*
X126662000Y-97326072D01*
X126752000Y-97326072D01*
X126876482Y-97313812D01*
X126996180Y-97277502D01*
X127106494Y-97218537D01*
X127203185Y-97139185D01*
X127282537Y-97042494D01*
X127341502Y-96932180D01*
X127363513Y-96859620D01*
X127495368Y-96991475D01*
X127738589Y-97153990D01*
X128008842Y-97265932D01*
X128295740Y-97323000D01*
X128588260Y-97323000D01*
X128875158Y-97265932D01*
X129145411Y-97153990D01*
X129388632Y-96991475D01*
X129595475Y-96784632D01*
X129712000Y-96610240D01*
X129828525Y-96784632D01*
X130035368Y-96991475D01*
X130278589Y-97153990D01*
X130548842Y-97265932D01*
X130835740Y-97323000D01*
X131128260Y-97323000D01*
X131415158Y-97265932D01*
X131685411Y-97153990D01*
X131928632Y-96991475D01*
X132135475Y-96784632D01*
X132252000Y-96610240D01*
X132368525Y-96784632D01*
X132575368Y-96991475D01*
X132818589Y-97153990D01*
X133088842Y-97265932D01*
X133375740Y-97323000D01*
X133668260Y-97323000D01*
X133955158Y-97265932D01*
X134225411Y-97153990D01*
X134468632Y-96991475D01*
X134675475Y-96784632D01*
X134797195Y-96602466D01*
X134866822Y-96719355D01*
X135061731Y-96935588D01*
X135295080Y-97109641D01*
X135557901Y-97234825D01*
X135705110Y-97279476D01*
X135935000Y-97158155D01*
X135935000Y-95965000D01*
X135915000Y-95965000D01*
X135915000Y-95711000D01*
X135935000Y-95711000D01*
X135935000Y-95691000D01*
X136189000Y-95691000D01*
X136189000Y-95711000D01*
G37*
G04 #@! TD.AperFunction*
M02*
