G04 #@! TF.GenerationSoftware,KiCad,Pcbnew,(5.1.9)-1*
G04 #@! TF.CreationDate,2021-01-27T19:03:13-08:00*
G04 #@! TF.ProjectId,DRR HAT,44525220-4841-4542-9e6b-696361645f70,1.0*
G04 #@! TF.SameCoordinates,Original*
G04 #@! TF.FileFunction,Legend,Top*
G04 #@! TF.FilePolarity,Positive*
%FSLAX46Y46*%
G04 Gerber Fmt 4.6, Leading zero omitted, Abs format (unit mm)*
G04 Created by KiCad (PCBNEW (5.1.9)-1) date 2021-01-27 19:03:13*
%MOMM*%
%LPD*%
G01*
G04 APERTURE LIST*
%ADD10C,0.150000*%
%ADD11C,0.120000*%
G04 APERTURE END LIST*
D10*
X127787047Y-108228380D02*
X127310857Y-108228380D01*
X127310857Y-107228380D01*
X128548952Y-108228380D02*
X128548952Y-107704571D01*
X128501333Y-107609333D01*
X128406095Y-107561714D01*
X128215619Y-107561714D01*
X128120380Y-107609333D01*
X128548952Y-108180761D02*
X128453714Y-108228380D01*
X128215619Y-108228380D01*
X128120380Y-108180761D01*
X128072761Y-108085523D01*
X128072761Y-107990285D01*
X128120380Y-107895047D01*
X128215619Y-107847428D01*
X128453714Y-107847428D01*
X128548952Y-107799809D01*
X129025142Y-107561714D02*
X129025142Y-108228380D01*
X129025142Y-107656952D02*
X129072761Y-107609333D01*
X129168000Y-107561714D01*
X129310857Y-107561714D01*
X129406095Y-107609333D01*
X129453714Y-107704571D01*
X129453714Y-108228380D01*
X130310857Y-108180761D02*
X130215619Y-108228380D01*
X130025142Y-108228380D01*
X129929904Y-108180761D01*
X129882285Y-108085523D01*
X129882285Y-107704571D01*
X129929904Y-107609333D01*
X130025142Y-107561714D01*
X130215619Y-107561714D01*
X130310857Y-107609333D01*
X130358476Y-107704571D01*
X130358476Y-107799809D01*
X129882285Y-107895047D01*
X131977523Y-107561714D02*
X131977523Y-108228380D01*
X131739428Y-107180761D02*
X131501333Y-107895047D01*
X132120380Y-107895047D01*
X137947047Y-108228380D02*
X137470857Y-108228380D01*
X137470857Y-107228380D01*
X138708952Y-108228380D02*
X138708952Y-107704571D01*
X138661333Y-107609333D01*
X138566095Y-107561714D01*
X138375619Y-107561714D01*
X138280380Y-107609333D01*
X138708952Y-108180761D02*
X138613714Y-108228380D01*
X138375619Y-108228380D01*
X138280380Y-108180761D01*
X138232761Y-108085523D01*
X138232761Y-107990285D01*
X138280380Y-107895047D01*
X138375619Y-107847428D01*
X138613714Y-107847428D01*
X138708952Y-107799809D01*
X139185142Y-107561714D02*
X139185142Y-108228380D01*
X139185142Y-107656952D02*
X139232761Y-107609333D01*
X139328000Y-107561714D01*
X139470857Y-107561714D01*
X139566095Y-107609333D01*
X139613714Y-107704571D01*
X139613714Y-108228380D01*
X140470857Y-108180761D02*
X140375619Y-108228380D01*
X140185142Y-108228380D01*
X140089904Y-108180761D01*
X140042285Y-108085523D01*
X140042285Y-107704571D01*
X140089904Y-107609333D01*
X140185142Y-107561714D01*
X140375619Y-107561714D01*
X140470857Y-107609333D01*
X140518476Y-107704571D01*
X140518476Y-107799809D01*
X140042285Y-107895047D01*
X141613714Y-107228380D02*
X142232761Y-107228380D01*
X141899428Y-107609333D01*
X142042285Y-107609333D01*
X142137523Y-107656952D01*
X142185142Y-107704571D01*
X142232761Y-107799809D01*
X142232761Y-108037904D01*
X142185142Y-108133142D01*
X142137523Y-108180761D01*
X142042285Y-108228380D01*
X141756571Y-108228380D01*
X141661333Y-108180761D01*
X141613714Y-108133142D01*
X148107047Y-108228380D02*
X147630857Y-108228380D01*
X147630857Y-107228380D01*
X148868952Y-108228380D02*
X148868952Y-107704571D01*
X148821333Y-107609333D01*
X148726095Y-107561714D01*
X148535619Y-107561714D01*
X148440380Y-107609333D01*
X148868952Y-108180761D02*
X148773714Y-108228380D01*
X148535619Y-108228380D01*
X148440380Y-108180761D01*
X148392761Y-108085523D01*
X148392761Y-107990285D01*
X148440380Y-107895047D01*
X148535619Y-107847428D01*
X148773714Y-107847428D01*
X148868952Y-107799809D01*
X149345142Y-107561714D02*
X149345142Y-108228380D01*
X149345142Y-107656952D02*
X149392761Y-107609333D01*
X149488000Y-107561714D01*
X149630857Y-107561714D01*
X149726095Y-107609333D01*
X149773714Y-107704571D01*
X149773714Y-108228380D01*
X150630857Y-108180761D02*
X150535619Y-108228380D01*
X150345142Y-108228380D01*
X150249904Y-108180761D01*
X150202285Y-108085523D01*
X150202285Y-107704571D01*
X150249904Y-107609333D01*
X150345142Y-107561714D01*
X150535619Y-107561714D01*
X150630857Y-107609333D01*
X150678476Y-107704571D01*
X150678476Y-107799809D01*
X150202285Y-107895047D01*
X151821333Y-107323619D02*
X151868952Y-107276000D01*
X151964190Y-107228380D01*
X152202285Y-107228380D01*
X152297523Y-107276000D01*
X152345142Y-107323619D01*
X152392761Y-107418857D01*
X152392761Y-107514095D01*
X152345142Y-107656952D01*
X151773714Y-108228380D01*
X152392761Y-108228380D01*
X158267047Y-108228380D02*
X157790857Y-108228380D01*
X157790857Y-107228380D01*
X159028952Y-108228380D02*
X159028952Y-107704571D01*
X158981333Y-107609333D01*
X158886095Y-107561714D01*
X158695619Y-107561714D01*
X158600380Y-107609333D01*
X159028952Y-108180761D02*
X158933714Y-108228380D01*
X158695619Y-108228380D01*
X158600380Y-108180761D01*
X158552761Y-108085523D01*
X158552761Y-107990285D01*
X158600380Y-107895047D01*
X158695619Y-107847428D01*
X158933714Y-107847428D01*
X159028952Y-107799809D01*
X159505142Y-107561714D02*
X159505142Y-108228380D01*
X159505142Y-107656952D02*
X159552761Y-107609333D01*
X159648000Y-107561714D01*
X159790857Y-107561714D01*
X159886095Y-107609333D01*
X159933714Y-107704571D01*
X159933714Y-108228380D01*
X160790857Y-108180761D02*
X160695619Y-108228380D01*
X160505142Y-108228380D01*
X160409904Y-108180761D01*
X160362285Y-108085523D01*
X160362285Y-107704571D01*
X160409904Y-107609333D01*
X160505142Y-107561714D01*
X160695619Y-107561714D01*
X160790857Y-107609333D01*
X160838476Y-107704571D01*
X160838476Y-107799809D01*
X160362285Y-107895047D01*
X162552761Y-108228380D02*
X161981333Y-108228380D01*
X162267047Y-108228380D02*
X162267047Y-107228380D01*
X162171809Y-107371238D01*
X162076571Y-107466476D01*
X161981333Y-107514095D01*
X168450857Y-108180761D02*
X168593714Y-108228380D01*
X168831809Y-108228380D01*
X168927047Y-108180761D01*
X168974666Y-108133142D01*
X169022285Y-108037904D01*
X169022285Y-107942666D01*
X168974666Y-107847428D01*
X168927047Y-107799809D01*
X168831809Y-107752190D01*
X168641333Y-107704571D01*
X168546095Y-107656952D01*
X168498476Y-107609333D01*
X168450857Y-107514095D01*
X168450857Y-107418857D01*
X168498476Y-107323619D01*
X168546095Y-107276000D01*
X168641333Y-107228380D01*
X168879428Y-107228380D01*
X169022285Y-107276000D01*
X169831809Y-108180761D02*
X169736571Y-108228380D01*
X169546095Y-108228380D01*
X169450857Y-108180761D01*
X169403238Y-108085523D01*
X169403238Y-107704571D01*
X169450857Y-107609333D01*
X169546095Y-107561714D01*
X169736571Y-107561714D01*
X169831809Y-107609333D01*
X169879428Y-107704571D01*
X169879428Y-107799809D01*
X169403238Y-107895047D01*
X170308000Y-108228380D02*
X170308000Y-107561714D01*
X170308000Y-107752190D02*
X170355619Y-107656952D01*
X170403238Y-107609333D01*
X170498476Y-107561714D01*
X170593714Y-107561714D01*
X170831809Y-107561714D02*
X171069904Y-108228380D01*
X171308000Y-107561714D01*
X171831809Y-108228380D02*
X171736571Y-108180761D01*
X171688952Y-108133142D01*
X171641333Y-108037904D01*
X171641333Y-107752190D01*
X171688952Y-107656952D01*
X171736571Y-107609333D01*
X171831809Y-107561714D01*
X171974666Y-107561714D01*
X172069904Y-107609333D01*
X172117523Y-107656952D01*
X172165142Y-107752190D01*
X172165142Y-108037904D01*
X172117523Y-108133142D01*
X172069904Y-108180761D01*
X171974666Y-108228380D01*
X171831809Y-108228380D01*
D11*
X127453400Y-111949800D02*
X127153400Y-112549800D01*
X126853400Y-111949800D02*
X127453400Y-111949800D01*
X127153400Y-112549800D02*
X126853400Y-111949800D01*
X132403400Y-117249800D02*
X131903400Y-117249800D01*
X132403400Y-122749800D02*
X132403400Y-117249800D01*
X131903400Y-122749800D02*
X132403400Y-122749800D01*
X131903400Y-117249800D02*
X131903400Y-122749800D01*
X129903400Y-117249800D02*
X129403400Y-117249800D01*
X129903400Y-122749800D02*
X129903400Y-117249800D01*
X129403400Y-122749800D02*
X129903400Y-122749800D01*
X129403400Y-117249800D02*
X129403400Y-122749800D01*
X127403400Y-117249800D02*
X126903400Y-117249800D01*
X127403400Y-122749800D02*
X127403400Y-117249800D01*
X126903400Y-122749800D02*
X127403400Y-122749800D01*
X126903400Y-117249800D02*
X126903400Y-122749800D01*
X133293400Y-116139800D02*
X129653400Y-116139800D01*
X133293400Y-111639800D02*
X133293400Y-116139800D01*
X134713400Y-111639800D02*
X133293400Y-111639800D01*
X134713400Y-123359800D02*
X134713400Y-111639800D01*
X129653400Y-123359800D02*
X134713400Y-123359800D01*
X126013400Y-116139800D02*
X129653400Y-116139800D01*
X126013400Y-111639800D02*
X126013400Y-116139800D01*
X124593400Y-111639800D02*
X126013400Y-111639800D01*
X124593400Y-123359800D02*
X124593400Y-111639800D01*
X129653400Y-123359800D02*
X124593400Y-123359800D01*
X139813400Y-123359800D02*
X134753400Y-123359800D01*
X134753400Y-123359800D02*
X134753400Y-111639800D01*
X134753400Y-111639800D02*
X136173400Y-111639800D01*
X136173400Y-111639800D02*
X136173400Y-116139800D01*
X136173400Y-116139800D02*
X139813400Y-116139800D01*
X139813400Y-123359800D02*
X144873400Y-123359800D01*
X144873400Y-123359800D02*
X144873400Y-111639800D01*
X144873400Y-111639800D02*
X143453400Y-111639800D01*
X143453400Y-111639800D02*
X143453400Y-116139800D01*
X143453400Y-116139800D02*
X139813400Y-116139800D01*
X137063400Y-117249800D02*
X137063400Y-122749800D01*
X137063400Y-122749800D02*
X137563400Y-122749800D01*
X137563400Y-122749800D02*
X137563400Y-117249800D01*
X137563400Y-117249800D02*
X137063400Y-117249800D01*
X139563400Y-117249800D02*
X139563400Y-122749800D01*
X139563400Y-122749800D02*
X140063400Y-122749800D01*
X140063400Y-122749800D02*
X140063400Y-117249800D01*
X140063400Y-117249800D02*
X139563400Y-117249800D01*
X142063400Y-117249800D02*
X142063400Y-122749800D01*
X142063400Y-122749800D02*
X142563400Y-122749800D01*
X142563400Y-122749800D02*
X142563400Y-117249800D01*
X142563400Y-117249800D02*
X142063400Y-117249800D01*
X137313400Y-112549800D02*
X137013400Y-111949800D01*
X137013400Y-111949800D02*
X137613400Y-111949800D01*
X137613400Y-111949800D02*
X137313400Y-112549800D01*
X147773400Y-111949800D02*
X147473400Y-112549800D01*
X147173400Y-111949800D02*
X147773400Y-111949800D01*
X147473400Y-112549800D02*
X147173400Y-111949800D01*
X152723400Y-117249800D02*
X152223400Y-117249800D01*
X152723400Y-122749800D02*
X152723400Y-117249800D01*
X152223400Y-122749800D02*
X152723400Y-122749800D01*
X152223400Y-117249800D02*
X152223400Y-122749800D01*
X150223400Y-117249800D02*
X149723400Y-117249800D01*
X150223400Y-122749800D02*
X150223400Y-117249800D01*
X149723400Y-122749800D02*
X150223400Y-122749800D01*
X149723400Y-117249800D02*
X149723400Y-122749800D01*
X147723400Y-117249800D02*
X147223400Y-117249800D01*
X147723400Y-122749800D02*
X147723400Y-117249800D01*
X147223400Y-122749800D02*
X147723400Y-122749800D01*
X147223400Y-117249800D02*
X147223400Y-122749800D01*
X153613400Y-116139800D02*
X149973400Y-116139800D01*
X153613400Y-111639800D02*
X153613400Y-116139800D01*
X155033400Y-111639800D02*
X153613400Y-111639800D01*
X155033400Y-123359800D02*
X155033400Y-111639800D01*
X149973400Y-123359800D02*
X155033400Y-123359800D01*
X146333400Y-116139800D02*
X149973400Y-116139800D01*
X146333400Y-111639800D02*
X146333400Y-116139800D01*
X144913400Y-111639800D02*
X146333400Y-111639800D01*
X144913400Y-123359800D02*
X144913400Y-111639800D01*
X149973400Y-123359800D02*
X144913400Y-123359800D01*
X157933400Y-111949800D02*
X157633400Y-112549800D01*
X157333400Y-111949800D02*
X157933400Y-111949800D01*
X157633400Y-112549800D02*
X157333400Y-111949800D01*
X162883400Y-117249800D02*
X162383400Y-117249800D01*
X162883400Y-122749800D02*
X162883400Y-117249800D01*
X162383400Y-122749800D02*
X162883400Y-122749800D01*
X162383400Y-117249800D02*
X162383400Y-122749800D01*
X160383400Y-117249800D02*
X159883400Y-117249800D01*
X160383400Y-122749800D02*
X160383400Y-117249800D01*
X159883400Y-122749800D02*
X160383400Y-122749800D01*
X159883400Y-117249800D02*
X159883400Y-122749800D01*
X157883400Y-117249800D02*
X157383400Y-117249800D01*
X157883400Y-122749800D02*
X157883400Y-117249800D01*
X157383400Y-122749800D02*
X157883400Y-122749800D01*
X157383400Y-117249800D02*
X157383400Y-122749800D01*
X163773400Y-116139800D02*
X160133400Y-116139800D01*
X163773400Y-111639800D02*
X163773400Y-116139800D01*
X165193400Y-111639800D02*
X163773400Y-111639800D01*
X165193400Y-123359800D02*
X165193400Y-111639800D01*
X160133400Y-123359800D02*
X165193400Y-123359800D01*
X156493400Y-116139800D02*
X160133400Y-116139800D01*
X156493400Y-111639800D02*
X156493400Y-116139800D01*
X155073400Y-111639800D02*
X156493400Y-111639800D01*
X155073400Y-123359800D02*
X155073400Y-111639800D01*
X160133400Y-123359800D02*
X155073400Y-123359800D01*
X170293400Y-123359800D02*
X165233400Y-123359800D01*
X165233400Y-123359800D02*
X165233400Y-111639800D01*
X165233400Y-111639800D02*
X166653400Y-111639800D01*
X166653400Y-111639800D02*
X166653400Y-116139800D01*
X166653400Y-116139800D02*
X170293400Y-116139800D01*
X170293400Y-123359800D02*
X175353400Y-123359800D01*
X175353400Y-123359800D02*
X175353400Y-111639800D01*
X175353400Y-111639800D02*
X173933400Y-111639800D01*
X173933400Y-111639800D02*
X173933400Y-116139800D01*
X173933400Y-116139800D02*
X170293400Y-116139800D01*
X167543400Y-117249800D02*
X167543400Y-122749800D01*
X167543400Y-122749800D02*
X168043400Y-122749800D01*
X168043400Y-122749800D02*
X168043400Y-117249800D01*
X168043400Y-117249800D02*
X167543400Y-117249800D01*
X170043400Y-117249800D02*
X170043400Y-122749800D01*
X170043400Y-122749800D02*
X170543400Y-122749800D01*
X170543400Y-122749800D02*
X170543400Y-117249800D01*
X170543400Y-117249800D02*
X170043400Y-117249800D01*
X172543400Y-117249800D02*
X172543400Y-122749800D01*
X172543400Y-122749800D02*
X173043400Y-122749800D01*
X173043400Y-122749800D02*
X173043400Y-117249800D01*
X173043400Y-117249800D02*
X172543400Y-117249800D01*
X167793400Y-112549800D02*
X167493400Y-111949800D01*
X167493400Y-111949800D02*
X168093400Y-111949800D01*
X168093400Y-111949800D02*
X167793400Y-112549800D01*
D10*
X129320066Y-110002180D02*
X129320066Y-110716466D01*
X129272447Y-110859323D01*
X129177209Y-110954561D01*
X129034352Y-111002180D01*
X128939114Y-111002180D01*
X129748638Y-110097419D02*
X129796257Y-110049800D01*
X129891495Y-110002180D01*
X130129590Y-110002180D01*
X130224828Y-110049800D01*
X130272447Y-110097419D01*
X130320066Y-110192657D01*
X130320066Y-110287895D01*
X130272447Y-110430752D01*
X129701019Y-111002180D01*
X130320066Y-111002180D01*
X139480066Y-110002180D02*
X139480066Y-110716466D01*
X139432447Y-110859323D01*
X139337209Y-110954561D01*
X139194352Y-111002180D01*
X139099114Y-111002180D01*
X139861019Y-110002180D02*
X140480066Y-110002180D01*
X140146733Y-110383133D01*
X140289590Y-110383133D01*
X140384828Y-110430752D01*
X140432447Y-110478371D01*
X140480066Y-110573609D01*
X140480066Y-110811704D01*
X140432447Y-110906942D01*
X140384828Y-110954561D01*
X140289590Y-111002180D01*
X140003876Y-111002180D01*
X139908638Y-110954561D01*
X139861019Y-110906942D01*
X149640066Y-110002180D02*
X149640066Y-110716466D01*
X149592447Y-110859323D01*
X149497209Y-110954561D01*
X149354352Y-111002180D01*
X149259114Y-111002180D01*
X150544828Y-110335514D02*
X150544828Y-111002180D01*
X150306733Y-109954561D02*
X150068638Y-110668847D01*
X150687685Y-110668847D01*
X159800066Y-110002180D02*
X159800066Y-110716466D01*
X159752447Y-110859323D01*
X159657209Y-110954561D01*
X159514352Y-111002180D01*
X159419114Y-111002180D01*
X160752447Y-110002180D02*
X160276257Y-110002180D01*
X160228638Y-110478371D01*
X160276257Y-110430752D01*
X160371495Y-110383133D01*
X160609590Y-110383133D01*
X160704828Y-110430752D01*
X160752447Y-110478371D01*
X160800066Y-110573609D01*
X160800066Y-110811704D01*
X160752447Y-110906942D01*
X160704828Y-110954561D01*
X160609590Y-111002180D01*
X160371495Y-111002180D01*
X160276257Y-110954561D01*
X160228638Y-110906942D01*
X169960066Y-110002180D02*
X169960066Y-110716466D01*
X169912447Y-110859323D01*
X169817209Y-110954561D01*
X169674352Y-111002180D01*
X169579114Y-111002180D01*
X170864828Y-110002180D02*
X170674352Y-110002180D01*
X170579114Y-110049800D01*
X170531495Y-110097419D01*
X170436257Y-110240276D01*
X170388638Y-110430752D01*
X170388638Y-110811704D01*
X170436257Y-110906942D01*
X170483876Y-110954561D01*
X170579114Y-111002180D01*
X170769590Y-111002180D01*
X170864828Y-110954561D01*
X170912447Y-110906942D01*
X170960066Y-110811704D01*
X170960066Y-110573609D01*
X170912447Y-110478371D01*
X170864828Y-110430752D01*
X170769590Y-110383133D01*
X170579114Y-110383133D01*
X170483876Y-110430752D01*
X170436257Y-110478371D01*
X170388638Y-110573609D01*
M02*
